<svg width="500" height="399" viewBox="0 0 500 399" fill="none" xmlns="http://www.w3.org/2000/svg">
<g clip-path="url(#clip0_4892_6)">
<path d="M500 311.4H0V311.65H500V311.4Z" fill="#EBEBEB"/>
<path d="M449.9 327.49H416.78V327.74H449.9V327.49Z" fill="#EBEBEB"/>
<path d="M331.22 330.21H322.53V330.46H331.22V330.21Z" fill="#EBEBEB"/>
<path d="M415.78 318.21H396.59V318.46H415.78V318.21Z" fill="#EBEBEB"/>
<path d="M95.65 319.89H52.46V320.14H95.65V319.89Z" fill="#EBEBEB"/>
<path d="M110.89 319.89H104.56V320.14H110.89V319.89Z" fill="#EBEBEB"/>
<path d="M225.15 324.11H131.47V324.36H225.15V324.11Z" fill="#EBEBEB"/>
<path d="M237 266.8H43.91C42.3973 266.797 40.9475 266.195 39.8788 265.124C38.8102 264.054 38.21 262.603 38.21 261.09V-10.34C38.2231 -11.844 38.8292 -13.282 39.8964 -14.3418C40.9637 -15.4015 42.4059 -15.9974 43.91 -16H237C238.514 -16 239.967 -15.3984 241.038 -14.3276C242.108 -13.2567 242.71 -11.8044 242.71 -10.29V261.09C242.71 262.604 242.108 264.057 241.038 265.128C239.967 266.198 238.514 266.8 237 266.8ZM43.91 -15.8C42.4636 -15.7974 41.0774 -15.2209 40.0556 -14.1973C39.0338 -13.1736 38.46 -11.7864 38.46 -10.34V261.09C38.46 262.536 39.0338 263.924 40.0556 264.947C41.0774 265.971 42.4636 266.547 43.91 266.55H237C238.447 266.547 239.834 265.971 240.858 264.948C241.881 263.924 242.457 262.537 242.46 261.09V-10.34C242.457 -11.7873 241.881 -13.1745 240.858 -14.1979C239.834 -15.2213 238.447 -15.7974 237 -15.8H43.91Z" fill="#EBEBEB"/>
<path d="M453.31 266.8H260.21C258.696 266.797 257.246 266.195 256.175 265.125C255.105 264.054 254.503 262.604 254.5 261.09V-10.34C254.516 -11.8449 255.124 -13.2829 256.193 -14.3424C257.262 -15.4019 258.705 -15.9975 260.21 -16H453.31C454.812 -15.9948 456.252 -15.3978 457.317 -14.3383C458.382 -13.2788 458.987 -11.8422 459 -10.34V261.09C459 262.601 458.401 264.05 457.335 265.121C456.268 266.191 454.821 266.795 453.31 266.8ZM260.21 -15.8C258.763 -15.7974 257.375 -15.2213 256.352 -14.1979C255.329 -13.1745 254.753 -11.7873 254.75 -10.34V261.09C254.753 262.537 255.329 263.924 256.352 264.948C257.375 265.971 258.763 266.547 260.21 266.55H453.31C454.757 266.547 456.145 265.971 457.168 264.948C458.191 263.924 458.767 262.537 458.77 261.09V-10.34C458.767 -11.7873 458.191 -13.1745 457.168 -14.1979C456.145 -15.2213 454.757 -15.7974 453.31 -15.8H260.21Z" fill="#EBEBEB"/>
<path d="M250.83 309.25H397.3V94.5L250.83 94.5L250.83 309.25Z" fill="#F0F0F0"/>
<path d="M256 140.93L392.12 140.93V101.27L256 101.27V140.93Z" fill="#E0E0E0"/>
<path d="M384.39 140.93H392.12V107.69H384.39V140.93Z" fill="#EBEBEB"/>
<path d="M347.01 140.93H354.74V107.69H347.01V140.93Z" fill="#EBEBEB"/>
<path d="M298.918 139.613L306.536 140.926L312.182 108.169L304.565 106.856L298.918 139.613Z" fill="#EBEBEB"/>
<path d="M374.81 140.93H382.54V112.07H374.81V140.93Z" fill="#EBEBEB"/>
<path d="M357.04 140.93H364.77V112.07H357.04V140.93Z" fill="#EBEBEB"/>
<path d="M312.18 140.93H319.91V112.07H312.18V140.93Z" fill="#EBEBEB"/>
<path d="M330.599 139.242L338.145 140.919L344.406 112.747L336.86 111.07L330.599 139.242Z" fill="#EBEBEB"/>
<path d="M368.12 140.93H371.99V106.04H368.12V140.93Z" fill="#EBEBEB"/>
<path d="M322.13 140.93H326V106.04H322.13V140.93Z" fill="#EBEBEB"/>
<path d="M392.13 147.21H256.01V186.87H392.13V147.21Z" fill="#E0E0E0"/>
<path d="M263.74 153.63H256.01V186.87H263.74V153.63Z" fill="#EBEBEB"/>
<path d="M301.13 153.63H293.4V186.87H301.13V153.63Z" fill="#EBEBEB"/>
<path d="M343.571 152.782L335.953 154.095L341.599 186.852L349.217 185.539L343.571 152.782Z" fill="#EBEBEB"/>
<path d="M273.32 158.01H265.59V186.87H273.32V158.01Z" fill="#EBEBEB"/>
<path d="M291.09 158.01H283.36V186.87H291.09V158.01Z" fill="#EBEBEB"/>
<path d="M335.95 158.01H328.22V186.87H335.95V158.01Z" fill="#EBEBEB"/>
<path d="M311.287 157.006L303.741 158.683L310.002 186.856L317.548 185.179L311.287 157.006Z" fill="#EBEBEB"/>
<path d="M280.01 151.98H276.14V186.87H280.01V151.98Z" fill="#EBEBEB"/>
<path d="M326 151.98H322.13V186.87H326V151.98Z" fill="#EBEBEB"/>
<path d="M384.39 186.87H392.12V153.63H384.39V186.87Z" fill="#EBEBEB"/>
<path d="M374.81 186.87H382.54V158.01H374.81V186.87Z" fill="#EBEBEB"/>
<path d="M357.04 186.87H364.77V158.01H357.04V186.87Z" fill="#EBEBEB"/>
<path d="M368.12 186.87H371.99V151.98H368.12V186.87Z" fill="#EBEBEB"/>
<path d="M256 232.81L392.12 232.81V193.15H256V232.81Z" fill="#E0E0E0"/>
<path d="M306.27 232.81H314V199.57H306.27V232.81Z" fill="#EBEBEB"/>
<path d="M258.185 231.488L265.803 232.802L271.449 200.045L263.832 198.732L258.185 231.488Z" fill="#EBEBEB"/>
<path d="M334.08 232.81H341.81V203.95H334.08V232.81Z" fill="#EBEBEB"/>
<path d="M316.3 232.81H324.03V203.95H316.3V232.81Z" fill="#EBEBEB"/>
<path d="M271.44 232.81H279.17V203.95H271.44V232.81Z" fill="#EBEBEB"/>
<path d="M289.864 231.117L297.41 232.794L303.671 204.622L296.125 202.945L289.864 231.117Z" fill="#EBEBEB"/>
<path d="M327.38 232.81H331.25V197.92H327.38V232.81Z" fill="#EBEBEB"/>
<path d="M281.39 232.81H285.26V197.92H281.39V232.81Z" fill="#EBEBEB"/>
<path d="M347.148 231.487L354.766 232.8L360.412 200.043L352.795 198.73L347.148 231.487Z" fill="#EBEBEB"/>
<path d="M360.4 232.81H368.13V203.95H360.4V232.81Z" fill="#EBEBEB"/>
<path d="M378.833 231.119L386.379 232.796L392.64 204.624L385.094 202.947L378.833 231.119Z" fill="#EBEBEB"/>
<path d="M370.35 232.81H374.22V197.92H370.35V232.81Z" fill="#EBEBEB"/>
<path d="M422.57 94.51H397.3V309.82H422.57V94.51Z" fill="#E0E0E0"/>
<path d="M188.92 65.4299L150.59 43.1299H121.07L82.1101 64.3699V208.87H188.92V65.4299Z" fill="#E0E0E0"/>
<path d="M81 65.43L82.1 64.37C96.305 50.6874 115.277 43.0699 135 43.13C154.709 43.0813 173.664 50.698 187.86 64.37L188.96 65.43V208.87H81V65.43ZM181.75 68.5C168.98 56.7877 152.283 50.2898 134.955 50.2898C117.627 50.2898 100.93 56.7877 88.16 68.5V201.71H181.75V68.5Z" fill="#FAFAFA"/>
<path d="M137.65 202.57H132.28V154.62H86.8101V149.25H132.28V100.2H86.8101V94.8301H132.28V49.3601H137.65V94.8301H183.12V100.2H137.65V149.25H183.12V154.62H137.65V202.57Z" fill="#F0F0F0"/>
<path d="M77.4299 63.9999L78.4299 62.9499C93.4272 47.9889 113.746 39.5869 134.93 39.5869C156.114 39.5869 176.433 47.9889 191.43 62.9499L192.5 63.9999V212.45H77.4299V63.9999ZM185.34 66.9999C171.784 54.0138 153.737 46.7642 134.965 46.7642C116.193 46.7642 98.1456 54.0138 84.5899 66.9999V205.29H185.34V66.9999Z" fill="#F0F0F0"/>
<path d="M334.56 67.8077C343.993 66.646 350.699 58.0569 349.537 48.6233C348.376 39.1898 339.787 32.484 330.353 33.6457C320.919 34.8073 314.214 43.3964 315.375 52.83C316.537 62.2636 325.126 68.9693 334.56 67.8077Z" fill="#E0E0E0"/>
<path d="M333.881 65.3274C341.921 64.5319 347.795 57.3688 346.999 49.3281C346.204 41.2875 339.041 35.4141 331 36.2096C322.959 37.005 317.086 44.1682 317.882 52.2088C318.677 60.2495 325.84 66.1229 333.881 65.3274Z" fill="#F0F0F0"/>
<path d="M333.14 40.7V50.93L339.92 47.1" fill="#F0F0F0"/>
<path d="M333.14 51.93C332.96 51.9331 332.783 51.8845 332.63 51.79C332.481 51.7014 332.357 51.5756 332.271 51.4248C332.185 51.274 332.14 51.1035 332.14 50.93V40.7C332.14 40.4347 332.245 40.1804 332.433 39.9928C332.621 39.8053 332.875 39.7 333.14 39.7C333.405 39.7 333.66 39.8053 333.847 39.9928C334.035 40.1804 334.14 40.4347 334.14 40.7V49.22L339.42 46.22C339.534 46.1538 339.66 46.1109 339.791 46.0938C339.922 46.0766 340.055 46.0854 340.182 46.1198C340.309 46.1542 340.429 46.2135 340.533 46.2942C340.637 46.3748 340.725 46.4754 340.79 46.59C340.856 46.7047 340.898 46.8313 340.915 46.9625C340.931 47.0937 340.921 47.2268 340.886 47.3542C340.851 47.4817 340.79 47.6008 340.709 47.7048C340.627 47.8087 340.526 47.8955 340.41 47.96L333.63 51.79C333.482 51.8782 333.313 51.9264 333.14 51.93Z" fill="#E0E0E0"/>
<path d="M250 356.56C357.083 356.56 443.89 351.492 443.89 345.24C443.89 338.988 357.083 333.92 250 333.92C142.918 333.92 56.1101 338.988 56.1101 345.24C56.1101 351.492 142.918 356.56 250 356.56Z" fill="#F5F5F5"/>
<path d="M78.67 346.07H169.01V334.53H78.67V346.07Z" fill="#263238"/>
<path opacity="0.2" d="M78.66 346.07H134.29V334.53H78.66V346.07Z" fill="white"/>
<path d="M171.02 255.98H77.2V341.17H171.02V255.98Z" fill="#007BD0"/>
<path opacity="0.4" d="M171.02 255.98H77.2V341.17H171.02V255.98Z" fill="white"/>
<path opacity="0.2" d="M171.02 255.98H136.5V341.17H171.02V255.98Z" fill="black"/>
<path d="M74.42 256C74.4181 256.409 74.4976 256.814 74.6538 257.191C74.81 257.569 75.0399 257.912 75.33 258.2C75.614 258.492 75.9547 258.724 76.3312 258.88C76.7078 259.037 77.1122 259.115 77.52 259.11H170.69C171.113 259.134 171.536 259.071 171.933 258.926C172.331 258.781 172.694 258.556 173.002 258.265C173.31 257.975 173.555 257.624 173.722 257.236C173.89 256.847 173.976 256.428 173.976 256.005C173.976 255.582 173.89 255.163 173.722 254.774C173.555 254.385 173.31 254.035 173.002 253.744C172.694 253.454 172.331 253.229 171.933 253.084C171.536 252.938 171.113 252.876 170.69 252.9H77.52C76.6978 252.9 75.9093 253.226 75.3279 253.808C74.7466 254.389 74.42 255.178 74.42 256Z" fill="#007BD0"/>
<path opacity="0.2" d="M74.42 256C74.4181 256.409 74.4976 256.814 74.6538 257.191C74.81 257.569 75.0399 257.912 75.33 258.2C75.614 258.492 75.9547 258.724 76.3312 258.88C76.7078 259.037 77.1122 259.115 77.52 259.11H136.38C136.803 259.134 137.226 259.071 137.623 258.926C138.021 258.781 138.384 258.556 138.692 258.265C139 257.975 139.245 257.624 139.412 257.236C139.58 256.847 139.666 256.428 139.666 256.005C139.666 255.582 139.58 255.163 139.412 254.774C139.245 254.385 139 254.035 138.692 253.744C138.384 253.454 138.021 253.229 137.623 253.084C137.226 252.938 136.803 252.876 136.38 252.9H77.52C76.6978 252.9 75.9093 253.226 75.3279 253.808C74.7466 254.389 74.42 255.178 74.42 256Z" fill="white"/>
<path opacity="0.3" d="M81.5101 280.58H131.58V263.52H81.5101V280.58Z" fill="white"/>
<path opacity="0.3" d="M81.5101 335.89H131.58V283.97H81.5101V335.89Z" fill="white"/>
<path opacity="0.2" d="M104.93 267.33C104.93 267.648 105.024 267.96 105.201 268.224C105.378 268.489 105.63 268.696 105.924 268.817C106.218 268.939 106.542 268.971 106.854 268.909C107.166 268.847 107.453 268.694 107.678 268.468C107.904 268.243 108.057 267.956 108.119 267.644C108.181 267.332 108.149 267.008 108.027 266.714C107.906 266.42 107.699 266.168 107.434 265.991C107.17 265.814 106.858 265.72 106.54 265.72C106.113 265.72 105.703 265.89 105.401 266.192C105.1 266.493 104.93 266.903 104.93 267.33Z" fill="black"/>
<path opacity="0.2" d="M104.93 289.37C104.93 289.688 105.024 289.999 105.201 290.264C105.378 290.529 105.63 290.735 105.924 290.857C106.218 290.979 106.542 291.011 106.854 290.949C107.166 290.887 107.453 290.733 107.678 290.508C107.904 290.283 108.057 289.996 108.119 289.684C108.181 289.372 108.149 289.048 108.027 288.754C107.906 288.459 107.699 288.208 107.434 288.031C107.17 287.854 106.858 287.76 106.54 287.76C106.329 287.76 106.119 287.801 105.924 287.882C105.728 287.963 105.551 288.082 105.401 288.231C105.252 288.381 105.133 288.558 105.052 288.754C104.972 288.949 104.93 289.158 104.93 289.37Z" fill="black"/>
<path d="M89.0098 252.57H108.59V247.95H89.0098V252.57Z" fill="#007BD0"/>
<path opacity="0.7" d="M89.0098 252.57H108.59V247.95H89.0098V252.57Z" fill="white"/>
<path d="M88 253H103.34C104.064 253 104.758 252.712 105.27 252.2C105.782 251.688 106.07 250.994 106.07 250.27C106.07 249.546 105.782 248.851 105.27 248.339C104.758 247.827 104.064 247.54 103.34 247.54H88V248.54H103.34C103.799 248.54 104.239 248.722 104.563 249.046C104.888 249.371 105.07 249.811 105.07 250.27C105.07 250.729 104.888 251.169 104.563 251.493C104.239 251.818 103.799 252 103.34 252H88V253Z" fill="#263238"/>
<path d="M101 253H116.33C116.689 253 117.044 252.929 117.375 252.792C117.706 252.655 118.007 252.454 118.26 252.2C118.514 251.947 118.715 251.646 118.852 251.315C118.989 250.983 119.06 250.628 119.06 250.27C119.06 249.911 118.989 249.556 118.852 249.225C118.715 248.894 118.514 248.593 118.26 248.339C118.007 248.086 117.706 247.885 117.375 247.748C117.044 247.61 116.689 247.54 116.33 247.54H101V248.54H103.33C103.789 248.54 104.229 248.722 104.553 249.046C104.878 249.371 105.06 249.811 105.06 250.27C105.06 250.729 104.878 251.169 104.553 251.493C104.229 251.818 103.789 252 103.33 252H101V253Z" fill="#263238"/>
<g opacity="0.4">
<path d="M88 253H103.34C104.064 253 104.758 252.712 105.27 252.2C105.782 251.688 106.07 250.994 106.07 250.27C106.07 249.546 105.782 248.851 105.27 248.339C104.758 247.827 104.064 247.54 103.34 247.54H88V248.54H103.34C103.799 248.54 104.239 248.722 104.563 249.046C104.888 249.371 105.07 249.811 105.07 250.27C105.07 250.729 104.888 251.169 104.563 251.493C104.239 251.818 103.799 252 103.34 252H88V253Z" fill="white"/>
</g>
<path d="M91.5399 247.1H111.12V242.48H91.5399V247.1Z" fill="#007BD0"/>
<path opacity="0.7" d="M91.5399 247.1H111.12V242.48H91.5399V247.1Z" fill="white"/>
<path d="M103.55 247.53H118.89C119.587 247.488 120.241 247.181 120.72 246.673C121.198 246.165 121.465 245.493 121.465 244.795C121.465 244.097 121.198 243.425 120.72 242.917C120.241 242.408 119.587 242.102 118.89 242.06H103.55V243.06H105.88C106.317 243.093 106.726 243.29 107.024 243.612C107.323 243.934 107.488 244.356 107.488 244.795C107.488 245.233 107.323 245.656 107.024 245.978C106.726 246.299 106.317 246.497 105.88 246.53H103.55V247.53Z" fill="#007BD0"/>
<g opacity="0.4">
<path d="M103.55 247.53H118.89C119.587 247.488 120.241 247.181 120.72 246.673C121.198 246.165 121.465 245.493 121.465 244.795C121.465 244.097 121.198 243.425 120.72 242.917C120.241 242.408 119.587 242.102 118.89 242.06H103.55V243.06H105.88C106.317 243.093 106.726 243.29 107.024 243.612C107.323 243.934 107.488 244.356 107.488 244.795C107.488 245.233 107.323 245.656 107.024 245.978C106.726 246.299 106.317 246.497 105.88 246.53H103.55V247.53Z" fill="white"/>
</g>
<path d="M90.54 247.53H105.88C106.577 247.488 107.231 247.181 107.71 246.673C108.188 246.165 108.455 245.493 108.455 244.795C108.455 244.097 108.188 243.425 107.71 242.917C107.231 242.408 106.577 242.102 105.88 242.06H90.54V243.06H105.88C106.317 243.093 106.726 243.29 107.024 243.612C107.323 243.934 107.488 244.356 107.488 244.795C107.488 245.233 107.323 245.656 107.024 245.978C106.726 246.299 106.317 246.497 105.88 246.53H90.54V247.53Z" fill="#007BD0"/>
<g opacity="0.2">
<path d="M90.54 247.53H105.88C106.577 247.488 107.231 247.181 107.71 246.673C108.188 246.165 108.455 245.493 108.455 244.795C108.455 244.097 108.188 243.425 107.71 242.917C107.231 242.408 106.577 242.102 105.88 242.06H90.54V243.06H105.88C106.317 243.093 106.726 243.29 107.024 243.612C107.323 243.934 107.488 244.356 107.488 244.795C107.488 245.233 107.323 245.656 107.024 245.978C106.726 246.299 106.317 246.497 105.88 246.53H90.54V247.53Z" fill="white"/>
</g>
<path d="M87.5199 241.64H107.1V237.02H87.5199V241.64Z" fill="#007BD0"/>
<path opacity="0.7" d="M87.5199 241.64H107.1V237.02H87.5199V241.64Z" fill="white"/>
<path d="M99.53 242.06H114.86C115.584 242.06 116.278 241.772 116.79 241.26C117.302 240.748 117.59 240.054 117.59 239.33C117.59 238.606 117.302 237.911 116.79 237.399C116.278 236.887 115.584 236.6 114.86 236.6H99.53V237.6H101.86C102.319 237.6 102.759 237.782 103.083 238.107C103.408 238.431 103.59 238.871 103.59 239.33C103.59 239.789 103.408 240.229 103.083 240.553C102.759 240.878 102.319 241.06 101.86 241.06H99.53V242.06Z" fill="#263238"/>
<g opacity="0.2">
<path d="M99.53 242.06H114.86C115.584 242.06 116.278 241.772 116.79 241.26C117.302 240.748 117.59 240.054 117.59 239.33C117.59 238.606 117.302 237.911 116.79 237.399C116.278 236.887 115.584 236.6 114.86 236.6H99.53V237.6H101.86C102.319 237.6 102.759 237.782 103.083 238.107C103.408 238.431 103.59 238.871 103.59 239.33C103.59 239.789 103.408 240.229 103.083 240.553C102.759 240.878 102.319 241.06 101.86 241.06H99.53V242.06Z" fill="white"/>
</g>
<path d="M86.52 242.06H101.85C102.574 242.06 103.268 241.772 103.78 241.26C104.292 240.748 104.58 240.054 104.58 239.33C104.58 238.606 104.292 237.911 103.78 237.399C103.268 236.887 102.574 236.6 101.85 236.6H86.52V237.6H101.85C102.309 237.6 102.749 237.782 103.073 238.107C103.398 238.431 103.58 238.871 103.58 239.33C103.58 239.789 103.398 240.229 103.073 240.553C102.749 240.878 102.309 241.06 101.85 241.06H86.52V242.06Z" fill="#263238"/>
<g opacity="0.4">
<path d="M86.52 242.06H101.85C102.574 242.06 103.268 241.772 103.78 241.26C104.292 240.748 104.58 240.054 104.58 239.33C104.58 238.606 104.292 237.911 103.78 237.399C103.268 236.887 102.574 236.6 101.85 236.6H86.52V237.6H101.85C102.309 237.6 102.749 237.782 103.073 238.107C103.398 238.431 103.58 238.871 103.58 239.33C103.58 239.789 103.398 240.229 103.073 240.553C102.749 240.878 102.309 241.06 101.85 241.06H86.52V242.06Z" fill="white"/>
</g>
<path d="M119.13 231.56H99.55V236.18H119.13V231.56Z" fill="#007BD0"/>
<path opacity="0.7" d="M119.13 231.56H99.55V236.18H119.13V231.56Z" fill="white"/>
<path d="M120.13 236.6H104.79C104.093 236.558 103.439 236.251 102.96 235.743C102.482 235.235 102.215 234.563 102.215 233.865C102.215 233.167 102.482 232.495 102.96 231.987C103.439 231.479 104.093 231.172 104.79 231.13H120.13V232.13H104.79C104.352 232.163 103.944 232.36 103.646 232.682C103.347 233.004 103.182 233.426 103.182 233.865C103.182 234.304 103.347 234.726 103.646 235.048C103.944 235.369 104.352 235.567 104.79 235.6H120.13V236.6Z" fill="#007BD0"/>
<path d="M107.12 236.6H91.7799C91.0831 236.558 90.4287 236.251 89.9502 235.743C89.4717 235.235 89.2053 234.563 89.2053 233.865C89.2053 233.167 89.4717 232.495 89.9502 231.987C90.4287 231.479 91.0831 231.172 91.7799 231.13H107.12V232.13H104.79C104.352 232.163 103.944 232.36 103.646 232.682C103.347 233.004 103.182 233.426 103.182 233.865C103.182 234.304 103.347 234.726 103.646 235.048C103.944 235.369 104.352 235.567 104.79 235.6H107.12V236.6Z" fill="#007BD0"/>
<g opacity="0.4">
<path d="M120.13 236.6H104.79C104.093 236.558 103.439 236.251 102.96 235.743C102.482 235.235 102.215 234.563 102.215 233.865C102.215 233.167 102.482 232.495 102.96 231.987C103.439 231.479 104.093 231.172 104.79 231.13H120.13V232.13H104.79C104.352 232.163 103.944 232.36 103.646 232.682C103.347 233.004 103.182 233.426 103.182 233.865C103.182 234.304 103.347 234.726 103.646 235.048C103.944 235.369 104.352 235.567 104.79 235.6H120.13V236.6Z" fill="white"/>
</g>
<path d="M134.51 248C136.08 248.16 141.18 247.87 142.51 248C142.83 248 143.1 248.09 143.39 248.14C143.852 248.055 144.32 248.008 144.79 248C146.18 248 151.09 248 152.79 248C156.48 248 159.91 251.21 165.71 252L165.05 252.92H121.62V251.2C125.87 252.09 130.94 247.6 134.51 248Z" fill="#007BD0"/>
<path opacity="0.5" d="M134.51 248C136.08 248.16 141.18 247.87 142.51 248C142.83 248 143.1 248.09 143.39 248.14C143.852 248.055 144.32 248.008 144.79 248C146.18 248 151.09 248 152.79 248C156.48 248 159.91 251.21 165.71 252L165.05 252.92H121.62V251.2C125.87 252.09 130.94 247.6 134.51 248Z" fill="white"/>
<path opacity="0.3" d="M165.72 252C159.92 251.2 156.49 248 152.8 248C151.797 247.963 150.798 248.151 149.877 248.55C148.957 248.95 148.137 249.552 147.48 250.31C146.846 249.607 146.076 249.04 145.217 248.643C144.357 248.245 143.426 248.027 142.48 248C138.92 247.65 133.85 252.14 129.59 251.21V252.93H165.03L165.72 252Z" fill="white"/>
<path d="M147.48 250.26C146.9 250.26 146.7 252.26 146.7 252.26H148.29C148.29 252.26 148.06 250.25 147.48 250.26Z" fill="#007BD0"/>
<path d="M121.19 252.99H165.72V252.22H121.19V252.99Z" fill="#263238"/>
<path d="M196.43 343.26H201.18L201.18 155.6H196.43L196.43 343.26Z" fill="#263238"/>
<path opacity="0.2" d="M196.43 343.26H201.18L201.18 155.6H196.43L196.43 343.26Z" fill="white"/>
<path d="M205.53 344.51H192.08V335.85C192.08 334.58 192.585 333.361 193.483 332.463C194.381 331.565 195.6 331.06 196.87 331.06H200.75C202.02 331.06 203.239 331.565 204.137 332.463C205.035 333.361 205.54 334.58 205.54 335.85V344.51H205.53Z" fill="#263238"/>
<path d="M180.88 137.07H216.74C217.53 167.31 228.74 183.41 228.74 183.41H168.87C168.87 183.41 180.09 167.31 180.88 137.07Z" fill="#007BD0"/>
<path opacity="0.3" d="M205.53 344.51H192.08V335.85C192.08 334.58 192.585 333.361 193.483 332.463C194.381 331.565 195.6 331.06 196.87 331.06H200.75C202.02 331.06 203.239 331.565 204.137 332.463C205.035 333.361 205.54 334.58 205.54 335.85V344.51H205.53Z" fill="white"/>
<path d="M218.32 346.07H179.32C179.32 344.577 179.913 343.145 180.969 342.089C182.025 341.033 183.457 340.44 184.95 340.44H212.69C214.183 340.44 215.615 341.033 216.671 342.089C217.727 343.145 218.32 344.577 218.32 346.07Z" fill="#263238"/>
<path opacity="0.4" d="M218.32 346.07H179.32C179.32 344.577 179.913 343.145 180.969 342.089C182.025 341.033 183.457 340.44 184.95 340.44H212.69C214.183 340.44 215.615 341.033 216.671 342.089C217.727 343.145 218.32 344.577 218.32 346.07Z" fill="white"/>
<path opacity="0.5" d="M168.87 183.41H228.74C228.74 183.41 225.11 178.2 221.83 168.13C218.644 158.076 216.926 147.615 216.73 137.07H180.87C180.672 147.611 178.958 158.068 175.78 168.12C172.5 178.19 168.87 183.41 168.87 183.41Z" fill="white"/>
<path opacity="0.2" d="M175.78 168.12C178.433 171.735 181.9 174.675 185.9 176.701C189.9 178.727 194.321 179.783 198.805 179.783C203.289 179.783 207.71 178.727 211.71 176.701C215.71 174.675 219.177 171.735 221.83 168.12C218.644 158.066 216.926 147.605 216.73 137.06H180.87C180.673 147.604 178.959 158.065 175.78 168.12Z" fill="white"/>
<path d="M377.17 322.54C376.969 322.129 376.871 321.676 376.884 321.219C376.896 320.762 377.019 320.315 377.242 319.916C377.465 319.517 377.782 319.178 378.165 318.928C378.547 318.678 378.985 318.524 379.44 318.48C379.05 317.314 379.025 316.056 379.368 314.875C379.711 313.694 380.406 312.646 381.36 311.87C381.588 311.658 381.88 311.528 382.19 311.5C382.522 311.535 382.833 311.676 383.08 311.9C384.853 313.16 386.617 314.427 388.37 315.7C388.795 315.945 389.155 316.288 389.42 316.7C390.51 318.79 386.61 321.48 388.21 323.21C388.67 323.7 389.41 323.81 389.99 324.21C391.24 324.99 391.4 326.72 391.99 328.09C392.58 329.46 394.63 330.51 395.41 329.25C394.83 327.94 396.58 326.81 398 326.65C399.42 326.49 400.91 326.4 401.69 325.07C403.69 326.83 408.22 321.91 408.12 319.93C409.78 320.06 410.91 321.61 411.27 323.16C411.502 324.796 411.559 326.452 411.44 328.1C411.49 331.31 412.53 334.46 412.44 337.66C412.44 340.16 411.44 342.94 409.14 343.94C408.005 344.341 406.801 344.504 405.6 344.42L379.6 344.25C378.975 344.299 378.347 344.196 377.77 343.95C376.59 343.33 376.34 341.79 376.23 340.47C375.77 334.81 375.307 329.143 374.84 323.47L377.17 322.54Z" fill="#007BD0"/>
<path opacity="0.3" d="M377.17 322.54C376.969 322.129 376.871 321.676 376.884 321.219C376.896 320.762 377.019 320.315 377.242 319.916C377.465 319.517 377.782 319.178 378.165 318.928C378.547 318.678 378.985 318.524 379.44 318.48C379.05 317.314 379.025 316.056 379.368 314.875C379.711 313.694 380.406 312.646 381.36 311.87C381.588 311.658 381.88 311.528 382.19 311.5C382.522 311.535 382.833 311.676 383.08 311.9C384.853 313.16 386.617 314.427 388.37 315.7C388.795 315.945 389.155 316.288 389.42 316.7C390.51 318.79 386.61 321.48 388.21 323.21C388.67 323.7 389.41 323.81 389.99 324.21C391.24 324.99 391.4 326.72 391.99 328.09C392.58 329.46 394.63 330.51 395.41 329.25C394.83 327.94 396.58 326.81 398 326.65C399.42 326.49 400.91 326.4 401.69 325.07C403.69 326.83 408.22 321.91 408.12 319.93C409.78 320.06 410.91 321.61 411.27 323.16C411.502 324.796 411.559 326.452 411.44 328.1C411.49 331.31 412.53 334.46 412.44 337.66C412.44 340.16 411.44 342.94 409.14 343.94C408.005 344.341 406.801 344.504 405.6 344.42L379.6 344.25C378.975 344.299 378.347 344.196 377.77 343.95C376.59 343.33 376.34 341.79 376.23 340.47C375.77 334.81 375.307 329.143 374.84 323.47L377.17 322.54Z" fill="white"/>
<path d="M371.11 295L371.44 299.09L371.68 302L372.28 309.6L372.63 313.94L373.11 319.74L373.31 322.23L373.37 322.97L373.6 325.89L373.93 329.89L374.12 332.38L374.33 334.89L374.57 337.82L374.75 340.05L374.95 342.53L375.04 343.61H412.12L412.2 342.53L412.4 340.04L412.58 337.83L412.82 334.9L413.03 332.38L413.23 329.89L413.55 325.89L413.79 322.97L413.85 322.23L414.05 319.74L414.52 313.94L414.87 309.59L415.49 302L415.72 299.09L416.06 295H371.11ZM373.16 296.9H374L373.22 297.68L373.16 296.9ZM376.68 296.9H377.55L381.26 300.61L377.12 304.76L373.5 301.15L373.42 300.15L376.68 296.9ZM374.25 310.32L377.12 307.45L381.26 311.59L377.12 315.74L374.47 313.09L374.25 310.32ZM412.69 313.09L410.05 315.74L405.9 311.59L410.05 307.45L412.91 310.32L412.69 313.09ZM382.6 302L386.75 306.15L382.6 310.3L378.45 306.15L382.6 302ZM382.6 299.33L380.23 296.95H385L382.6 299.33ZM388.09 307.5L392.24 311.64L388.09 315.79L384 311.6L388.09 307.5ZM393.58 321.27L389.44 317.13L393.58 312.99L397.72 317.13L393.58 321.27ZM399.06 318.47L403.21 322.62L399.07 326.76L394.92 322.61L399.06 318.47ZM392.24 322.61L388.09 326.76L384 322.58L388.14 318.43L392.24 322.61ZM389.44 306.15L393.58 302L397.72 306.15L393.58 310.3L389.44 306.15ZM399.06 307.5L403.21 311.64L399.06 315.79L394.92 311.64L399.06 307.5ZM400.41 306.15L404.56 302L408.7 306.15L404.56 310.3L400.41 306.15ZM408.7 317.15L404.56 321.29L400.41 317.15L404.56 313.01L408.7 317.15ZM404.56 323.98L408.7 328.13L404.56 332.27L400.41 328.13L404.56 323.98ZM403.21 333.62L399.06 337.76L394.92 333.62L399.07 329.47L403.21 333.62ZM393.58 332.27L389.44 328.13L393.58 323.98L397.72 328.13L393.58 332.27ZM392.24 333.62L388.09 337.76L384 333.56L388.14 329.41L392.24 333.62ZM386.75 339L384.06 341.69H381.14L378.45 339L382.6 334.85L386.75 339ZM382.6 332.17L378.45 328.03L382.6 323.88L386.75 328.03L382.6 332.17ZM382.6 321.17L378.45 317.03L382.6 313L386.75 317.14L382.6 321.17ZM387.6 296.85H388.48L392.19 300.56L388.04 304.71L384 300.62L387.6 296.85ZM391.16 296.85H396L393.63 299.23L391.16 296.85ZM398.58 296.85H399.45L403.16 300.56L399.01 304.71L394.87 300.56L398.58 296.85ZM406.87 296.85L404.51 299.23L402.14 296.85H406.87ZM410.43 296.85L413.68 300.11L413.6 301.11L410 304.72L405.85 300.57L409.56 296.86L410.43 296.85ZM413.95 296.85L413.88 297.62L413.11 296.85H413.95ZM413.06 307.78L411.34 306.05L413.34 304.05L413.06 307.78ZM412.29 318L411.39 317.1L412.45 316.03L412.29 318.03V318ZM411.72 325.06L410.05 326.73L405.9 322.59L410.05 318.44L412.05 320.49L411.72 325.06ZM411.47 328.16L411.39 328.08L411.48 327.98V328.16H411.47ZM410.75 337L410.05 337.71L405.9 333.57L410.05 329.42L411.27 330.64L410.75 337ZM408.7 341.74L410.05 340.39L410.45 340.79L410.37 341.79L408.7 341.74ZM406.02 341.74H403.1L400.41 339L404.56 334.85L408.7 339L406.02 341.74ZM397.72 341.74L399.06 340.39L400.41 341.74H397.72ZM392.11 341.74L389.44 339L393.58 334.85L397.72 339L395 341.73L392.11 341.74ZM386.74 341.74L388.09 340.39L389.44 341.74H386.74ZM376.74 340.74L377.14 340.34L378.48 341.69H376.81L376.74 340.74ZM375.91 330.59L377.14 329.37L381.28 333.52L377.14 337.66L376.42 336.95L375.91 330.59ZM375.69 327.92L375.8 328.03L375.71 328.11V327.92H375.69ZM375.08 320.44L377.14 318.39L381.28 322.54L377.14 326.68L375.45 325.01L375.08 320.44ZM374.7 316L375.78 317.07L374.87 317.98L374.7 316ZM373.7 304.05L375.7 306.05L374 307.85L373.7 304.07V304.05Z" fill="#007BD0"/>
<g opacity="0.6">
<path d="M371.11 295L371.44 299.09L371.68 302L372.28 309.6L372.63 313.94L373.11 319.74L373.31 322.23L373.37 322.97L373.6 325.89L373.93 329.89L374.12 332.38L374.33 334.89L374.57 337.82L374.75 340.05L374.95 342.53L375.04 343.61H412.12L412.2 342.53L412.4 340.04L412.58 337.83L412.82 334.9L413.03 332.38L413.23 329.89L413.55 325.89L413.79 322.97L413.85 322.23L414.05 319.74L414.52 313.94L414.87 309.59L415.49 302L415.72 299.09L416.06 295H371.11ZM373.16 296.9H374L373.22 297.68L373.16 296.9ZM376.68 296.9H377.55L381.26 300.61L377.12 304.76L373.5 301.15L373.42 300.15L376.68 296.9ZM374.25 310.32L377.12 307.45L381.26 311.59L377.12 315.74L374.47 313.09L374.25 310.32ZM412.69 313.09L410.05 315.74L405.9 311.59L410.05 307.45L412.91 310.32L412.69 313.09ZM382.6 302L386.75 306.15L382.6 310.3L378.45 306.15L382.6 302ZM382.6 299.33L380.23 296.95H385L382.6 299.33ZM388.09 307.5L392.24 311.64L388.09 315.79L384 311.6L388.09 307.5ZM393.58 321.27L389.44 317.13L393.58 312.99L397.72 317.13L393.58 321.27ZM399.06 318.47L403.21 322.62L399.07 326.76L394.92 322.61L399.06 318.47ZM392.24 322.61L388.09 326.76L384 322.58L388.14 318.43L392.24 322.61ZM389.44 306.15L393.58 302L397.72 306.15L393.58 310.3L389.44 306.15ZM399.06 307.5L403.21 311.64L399.06 315.79L394.92 311.64L399.06 307.5ZM400.41 306.15L404.56 302L408.7 306.15L404.56 310.3L400.41 306.15ZM408.7 317.15L404.56 321.29L400.41 317.15L404.56 313.01L408.7 317.15ZM404.56 323.98L408.7 328.13L404.56 332.27L400.41 328.13L404.56 323.98ZM403.21 333.62L399.06 337.76L394.92 333.62L399.07 329.47L403.21 333.62ZM393.58 332.27L389.44 328.13L393.58 323.98L397.72 328.13L393.58 332.27ZM392.24 333.62L388.09 337.76L384 333.56L388.14 329.41L392.24 333.62ZM386.75 339L384.06 341.69H381.14L378.45 339L382.6 334.85L386.75 339ZM382.6 332.17L378.45 328.03L382.6 323.88L386.75 328.03L382.6 332.17ZM382.6 321.17L378.45 317.03L382.6 313L386.75 317.14L382.6 321.17ZM387.6 296.85H388.48L392.19 300.56L388.04 304.71L384 300.62L387.6 296.85ZM391.16 296.85H396L393.63 299.23L391.16 296.85ZM398.58 296.85H399.45L403.16 300.56L399.01 304.71L394.87 300.56L398.58 296.85ZM406.87 296.85L404.51 299.23L402.14 296.85H406.87ZM410.43 296.85L413.68 300.11L413.6 301.11L410 304.72L405.85 300.57L409.56 296.86L410.43 296.85ZM413.95 296.85L413.88 297.62L413.11 296.85H413.95ZM413.06 307.78L411.34 306.05L413.34 304.05L413.06 307.78ZM412.29 318L411.39 317.1L412.45 316.03L412.29 318.03V318ZM411.72 325.06L410.05 326.73L405.9 322.59L410.05 318.44L412.05 320.49L411.72 325.06ZM411.47 328.16L411.39 328.08L411.48 327.98V328.16H411.47ZM410.75 337L410.05 337.71L405.9 333.57L410.05 329.42L411.27 330.64L410.75 337ZM408.7 341.74L410.05 340.39L410.45 340.79L410.37 341.79L408.7 341.74ZM406.02 341.74H403.1L400.41 339L404.56 334.85L408.7 339L406.02 341.74ZM397.72 341.74L399.06 340.39L400.41 341.74H397.72ZM392.11 341.74L389.44 339L393.58 334.85L397.72 339L395 341.73L392.11 341.74ZM386.74 341.74L388.09 340.39L389.44 341.74H386.74ZM376.74 340.74L377.14 340.34L378.48 341.69H376.81L376.74 340.74ZM375.91 330.59L377.14 329.37L381.28 333.52L377.14 337.66L376.42 336.95L375.91 330.59ZM375.69 327.92L375.8 328.03L375.71 328.11V327.92H375.69ZM375.08 320.44L377.14 318.39L381.28 322.54L377.14 326.68L375.45 325.01L375.08 320.44ZM374.7 316L375.78 317.07L374.87 317.98L374.7 316ZM373.7 304.05L375.7 306.05L374 307.85L373.7 304.07V304.05Z" fill="white"/>
</g>
<path d="M417.01 293.32H370.16C369.254 293.32 368.52 294.054 368.52 294.96V296.96C368.52 297.866 369.254 298.6 370.16 298.6H417.01C417.916 298.6 418.65 297.866 418.65 296.96V294.96C418.65 294.054 417.916 293.32 417.01 293.32Z" fill="#007BD0"/>
<path d="M373.77 346.07H413.39C414.296 346.07 415.03 345.336 415.03 344.43V342.43C415.03 341.524 414.296 340.79 413.39 340.79H373.77C372.864 340.79 372.13 341.524 372.13 342.43V344.43C372.13 345.336 372.864 346.07 373.77 346.07Z" fill="#007BD0"/>
<path d="M377.66 176.08H270.25C268.102 176.132 266.041 176.944 264.435 178.373C262.83 179.801 261.782 181.752 261.48 183.88L249 285.74H372L384.51 183.88C384.663 182.902 384.599 181.902 384.322 180.951C384.046 180 383.564 179.121 382.91 178.377C382.257 177.633 381.448 177.042 380.541 176.645C379.633 176.248 378.65 176.055 377.66 176.08Z" fill="#263238"/>
<path opacity="0.6" d="M377.66 176.08H270.25C268.102 176.132 266.041 176.944 264.435 178.373C262.83 179.801 261.782 181.752 261.48 183.88L249 285.74H372L384.51 183.88C384.663 182.902 384.599 181.902 384.322 180.951C384.046 180 383.564 179.121 382.91 178.377C382.257 177.633 381.448 177.042 380.541 176.645C379.633 176.248 378.65 176.055 377.66 176.08Z" fill="white"/>
<path opacity="0.2" d="M348.21 285.74H372L384.51 183.88C384.663 182.902 384.598 181.902 384.322 180.951C384.046 180 383.564 179.121 382.91 178.377C382.257 177.633 381.448 177.042 380.54 176.645C379.633 176.248 378.65 176.055 377.66 176.08H369.49C367.342 176.132 365.281 176.944 363.675 178.373C362.069 179.801 361.022 181.752 360.72 183.88L348.21 285.74Z" fill="black"/>
<path d="M365.11 345.66H356.77L353.36 308.6H367.66L365.11 345.66Z" fill="#263238"/>
<path d="M328.51 345.66H320.17L316.77 308.6H331.06L328.51 345.66Z" fill="#263238"/>
<path d="M266.39 345.66H258.05L254.65 308.6H268.94L266.39 345.66Z" fill="#263238"/>
<path d="M229.79 345.66H221.46L218.05 308.6H232.34L229.79 345.66Z" fill="#263238"/>
<path opacity="0.2" d="M328.51 345.66H320.17L316.77 308.6H331.06L328.51 345.66Z" fill="white"/>
<path opacity="0.2" d="M229.79 345.66H221.46L218.05 308.6H232.34L229.79 345.66Z" fill="white"/>
<path d="M371.23 307L370.47 316.58C370.445 316.917 370.292 317.231 370.043 317.46C369.794 317.688 369.468 317.813 369.13 317.81H217.21C216.873 317.811 216.548 317.685 216.299 317.457C216.051 317.229 215.898 316.916 215.87 316.58L215.12 307H371.23Z" fill="#263238"/>
<path opacity="0.2" d="M335.05 307L334.29 316.58C334.265 316.917 334.112 317.231 333.863 317.46C333.614 317.688 333.288 317.813 332.95 317.81H217.21C216.873 317.811 216.548 317.685 216.299 317.457C216.051 317.229 215.898 316.916 215.87 316.58L215.12 307H335.05Z" fill="white"/>
<path d="M325 280.84H268.07L264.65 241.84C264.32 238.109 262.607 234.636 259.845 232.104C257.084 229.572 253.476 228.166 249.73 228.16H199.73C198.856 228.16 197.991 228.341 197.191 228.693C196.391 229.044 195.673 229.559 195.082 230.203C194.492 230.847 194.041 231.607 193.76 232.435C193.479 233.262 193.374 234.139 193.45 235.01L194.24 244.01C194.362 245.443 194.971 246.791 195.967 247.828C196.962 248.865 198.284 249.53 199.71 249.71L201.49 249.94C202.553 250.076 203.538 250.571 204.281 251.345C205.023 252.118 205.478 253.122 205.57 254.19L209.88 303.45C210.041 305.18 210.84 306.788 212.121 307.961C213.402 309.135 215.073 309.79 216.81 309.8H325V280.84Z" fill="#263238"/>
<path opacity="0.6" d="M325 280.84H268.07L264.65 241.84C264.32 238.109 262.607 234.636 259.845 232.104C257.084 229.572 253.476 228.166 249.73 228.16H199.73C198.856 228.16 197.991 228.341 197.191 228.693C196.391 229.044 195.673 229.559 195.082 230.203C194.492 230.847 194.041 231.607 193.76 232.435C193.479 233.262 193.374 234.139 193.45 235.01L194.24 244.01C194.362 245.443 194.971 246.791 195.967 247.828C196.962 248.865 198.284 249.53 199.71 249.71L201.49 249.94C202.553 250.076 203.538 250.571 204.281 251.345C205.023 252.118 205.478 253.122 205.57 254.19L209.88 303.45C210.041 305.18 210.84 306.788 212.121 307.961C213.402 309.135 215.073 309.79 216.81 309.8H325V280.84Z" fill="white"/>
<path opacity="0.2" d="M230 241.79C229.67 238.059 227.957 234.586 225.195 232.054C222.434 229.522 218.826 228.116 215.08 228.11H249.69C253.436 228.116 257.044 229.522 259.805 232.054C262.567 234.586 264.28 238.059 264.61 241.79L268.03 280.79H233.46L230 241.79Z" fill="black"/>
<path opacity="0.1" d="M325 280.84H233.46L230.04 241.84C229.71 238.109 227.997 234.636 225.235 232.104C222.474 229.572 218.866 228.166 215.12 228.16H199.75C198.876 228.16 198.011 228.341 197.211 228.693C196.411 229.044 195.693 229.559 195.102 230.203C194.512 230.847 194.061 231.607 193.78 232.435C193.5 233.262 193.394 234.139 193.47 235.01L194.26 244.01C194.382 245.443 194.991 246.791 195.987 247.828C196.982 248.865 198.304 249.53 199.73 249.71L201.51 249.94C202.573 250.076 203.558 250.571 204.301 251.345C205.043 252.118 205.498 253.122 205.59 254.19L209.9 303.45C210.061 305.18 210.86 306.788 212.141 307.961C213.422 309.135 215.093 309.79 216.83 309.8H325V280.84Z" fill="white"/>
<path d="M231.79 286.65H338.07C340.843 286.65 343.09 284.403 343.09 281.63V265.28C343.09 262.508 340.843 260.26 338.07 260.26H231.79C229.018 260.26 226.77 262.508 226.77 265.28V281.63C226.77 284.403 229.018 286.65 231.79 286.65Z" fill="#263238"/>
<path opacity="0.5" d="M226.77 265.28V281.64C226.77 282.966 227.297 284.238 228.234 285.176C229.172 286.113 230.444 286.64 231.77 286.64H338.07C339.396 286.64 340.668 286.113 341.606 285.176C342.543 284.238 343.07 282.966 343.07 281.64V265.28C343.07 263.954 342.543 262.682 341.606 261.745C340.668 260.807 339.396 260.28 338.07 260.28H231.79C231.132 260.277 230.479 260.405 229.87 260.655C229.262 260.905 228.708 261.273 228.242 261.737C227.775 262.202 227.405 262.754 227.153 263.362C226.9 263.97 226.77 264.622 226.77 265.28Z" fill="white"/>
<path opacity="0.1" d="M226.77 265.28V281.64C226.769 282.383 226.934 283.116 227.252 283.788C227.571 284.459 228.034 285.051 228.61 285.52H307.89C309.216 285.52 310.488 284.993 311.426 284.056C312.363 283.118 312.89 281.846 312.89 280.52V264.15C312.89 263.404 312.723 262.667 312.401 261.994C312.079 261.321 311.611 260.729 311.03 260.26H231.79C231.13 260.257 230.476 260.385 229.866 260.637C229.256 260.888 228.701 261.258 228.234 261.724C227.768 262.191 227.398 262.746 227.147 263.356C226.895 263.966 226.767 264.62 226.77 265.28Z" fill="white"/>
<path d="M297.1 194.81C293.611 199.016 289.906 203.038 286 206.86C281.56 211.08 277.54 215 271.82 218.04C270.197 218.88 268.316 219.071 266.558 218.575C264.799 218.079 263.295 216.934 262.35 215.37C259.79 210.99 259.93 205.82 259.85 201.21C259.948 195.73 260.483 190.266 261.45 184.87L267.08 185.23C267.42 190.42 267.81 195.71 268.44 200.74C268.711 203.611 269.318 206.441 270.25 209.17C270.41 209.54 270.6 209.82 270.63 209.79C270.429 209.518 270.174 209.289 269.882 209.117C269.59 208.945 269.266 208.834 268.93 208.79C268.325 208.658 267.695 208.711 267.12 208.94C268.095 208.291 269.027 207.58 269.91 206.81C276.55 200.99 282.46 194.08 288.37 187.51L297.07 194.85L297.1 194.81Z" fill="#EBC0BB"/>
<path d="M279.39 194.82L286.88 200.3L292.47 204.4L293.28 203.4L295.34 200.85L299.34 195.97L291.51 178.97C288.8 180.77 282.94 189.43 280.51 193.12C279.8 194.17 279.39 194.82 279.39 194.82Z" fill="#007BD0"/>
<path opacity="0.3" d="M279.39 194.82L286.88 200.3L292.47 204.4L293.28 203.4L280.47 193.15C279.8 194.17 279.39 194.82 279.39 194.82Z" fill="white"/>
<path opacity="0.2" d="M286.88 200.3L292.47 204.4L295.34 200.85C294.67 195.19 293.97 189.41 293.97 189.41C290.888 192.518 288.475 196.224 286.88 200.3Z" fill="black"/>
<path d="M290.29 227.25L330.83 233.74C330.83 233.74 331.48 227.51 332.11 218.96C332.51 213.5 332.91 207.1 333.11 200.76C333.43 191.16 333.33 181.71 332.2 175.97C324.178 174.525 315.997 174.169 307.88 174.91C302.218 175.381 296.669 176.765 291.45 179.01C291.45 179.01 293.28 198.77 290.29 227.25Z" fill="#007BD0"/>
<path d="M272.72 192.77H268.12C267.262 192.704 266.465 192.3 265.903 191.649C265.341 190.997 265.059 190.149 265.12 189.29V179.22C265.059 178.362 265.341 177.514 265.903 176.862C266.465 176.21 267.262 175.807 268.12 175.74H272.72V177.52H268.12C267.47 177.52 266.93 178.3 266.93 179.22V189.29C266.93 190.21 267.47 190.99 268.12 190.99H272.72V192.77Z" fill="#263238"/>
<path d="M268.42 178.32L265.8 178.24C265.316 178.227 264.839 178.361 264.434 178.626C264.028 178.89 263.713 179.272 263.53 179.72L261.47 184.22C261.065 185.221 260.867 186.293 260.888 187.372C260.909 188.452 261.147 189.516 261.59 190.5L262.15 191.83C266.55 192.32 270.99 188.95 270.99 188.95L272.37 188.18C273.6 187.5 273.96 185.74 273.19 184.18L271.41 180.51C271.154 179.91 270.742 179.39 270.216 179.005C269.689 178.619 269.069 178.383 268.42 178.32Z" fill="#EEC1BB"/>
<path d="M269.03 193.62H280.74C281.242 193.62 281.65 193.213 281.65 192.71V175.49C281.65 174.988 281.242 174.58 280.74 174.58H269.03C268.527 174.58 268.12 174.988 268.12 175.49V192.71C268.12 193.213 268.527 193.62 269.03 193.62Z" fill="#263238"/>
<path d="M275.43 165.62C276.63 166.23 276.43 167.97 276.13 169.02C275.83 170.07 275.23 170.93 275.43 172.11C273.43 170.43 276.07 167.67 275.43 165.62Z" fill="#263238"/>
<path d="M272.82 165.62C274.01 166.23 273.82 167.97 273.51 169.02C273.2 170.07 272.62 170.93 272.82 172.11C270.82 170.43 273.46 167.67 272.82 165.62Z" fill="#263238"/>
<path d="M278.05 165.62C279.24 166.23 279.05 167.97 278.74 169.02C278.43 170.07 277.85 170.93 278.05 172.11C276.05 170.43 278.68 167.67 278.05 165.62Z" fill="#263238"/>
<path opacity="0.7" d="M275.43 165.62C276.63 166.23 276.43 167.97 276.13 169.02C275.83 170.07 275.23 170.93 275.43 172.11C273.43 170.43 276.07 167.67 275.43 165.62Z" fill="white"/>
<path opacity="0.7" d="M272.82 165.62C274.01 166.23 273.82 167.97 273.51 169.02C273.2 170.07 272.62 170.93 272.82 172.11C270.82 170.43 273.46 167.67 272.82 165.62Z" fill="white"/>
<path opacity="0.7" d="M278.05 165.62C279.24 166.23 279.05 167.97 278.74 169.02C278.43 170.07 277.85 170.93 278.05 172.11C276.05 170.43 278.68 167.67 278.05 165.62Z" fill="white"/>
<path d="M262.63 200.28L265.49 198.85L275.49 202.22L289.49 199.43L292 210.05C292 210.05 292 221.71 291.33 221.8C290.66 221.89 275.56 221.8 275.56 221.8L268.18 216.48L262.63 200.28Z" fill="#E0E0E0"/>
<path d="M293.1 200.43L297.81 224.83L278.93 225.87L266.19 221.56L260.87 198.59L275.45 203.27L293.1 200.43Z" fill="#263238"/>
<path opacity="0.2" d="M275.45 203.27L278.93 225.87L297.81 224.84L293.1 200.43L275.45 203.27Z" fill="white"/>
<path opacity="0.1" d="M275.45 203.27L278.93 225.87L266.19 221.56L260.87 198.59L275.45 203.27Z" fill="white"/>
<path d="M288.13 217L280.48 214.46L281.66 224.6C281.66 224.6 288.66 225.31 289.41 221.6L288.13 217Z" fill="#EEC1BB"/>
<path d="M274.24 216.67L275.61 225L281.66 224.6L280.48 214.45L274.24 216.67Z" fill="#EEC1BB"/>
<path opacity="0.2" d="M332.11 219C332.51 213.54 332.91 207.14 333.11 200.8C329.5 194.14 326.03 188.54 326.03 188.54C326.03 188.54 309.12 202.33 332.11 219Z" fill="black"/>
<path d="M336.41 196C334.33 205.59 329.78 221.52 320.85 226.79C320.022 227.22 319.131 227.517 318.21 227.67C315.125 227.977 312.012 227.887 308.95 227.4C300.896 226.312 292.932 224.641 285.12 222.4L286.12 216.84L301.92 217.71C306.09 217.94 313.37 218.23 316.02 217.78L315.7 217.95C315.84 217.82 316.13 217.56 316.26 217.41C318.49 214.78 319.78 211.48 321.08 208.07C322.744 203.367 324.15 198.577 325.29 193.72L336.41 196Z" fill="#EBC0BB"/>
<path d="M320.83 201.51L337.05 205.31L337.5 203.37C340.33 190.37 339.23 177.37 332.21 175.96C332.21 175.96 327.31 178.42 325.12 182.7C323.41 186 321.77 195.49 321.12 199.58C320.94 200.77 320.83 201.51 320.83 201.51Z" fill="#007BD0"/>
<path opacity="0.2" d="M304.97 210.77C309.151 210.77 312.54 206.503 312.54 201.24C312.54 195.977 309.151 191.71 304.97 191.71C300.789 191.71 297.4 195.977 297.4 201.24C297.4 206.503 300.789 210.77 304.97 210.77Z" fill="white"/>
<path d="M314.59 202.99L297.12 195.23L296.05 199.26L313.92 207.13L314.59 202.99Z" fill="#007BD0"/>
<path opacity="0.3" d="M314.59 202.99L297.12 195.23L296.05 199.26L313.92 207.13L314.59 202.99Z" fill="white"/>
<path opacity="0.2" d="M305.32 205.51L301.87 203.85V205.23L304.97 206.58L305.32 205.51Z" fill="white"/>
<path opacity="0.3" d="M313.51 197.11C313.51 197.11 311.15 192.03 307.7 190.83C304.25 189.63 300.37 192.26 300.37 192.26L299.9 191.14C299.9 191.14 304.04 188.74 307.8 189.83C311.56 190.92 314.14 196.69 314.14 196.69L313.51 197.11Z" fill="white"/>
<path opacity="0.3" d="M302.2 211C299.85 210.15 297.88 206.56 297.88 206.56L297.07 207.09C298.081 209.204 299.771 210.919 301.87 211.96C305.34 213.63 309.37 210.96 309.37 210.96L308.83 210.26C307.855 210.881 306.75 211.27 305.601 211.399C304.452 211.527 303.288 211.391 302.2 211Z" fill="white"/>
<path opacity="0.3" d="M320.83 201.51L337.05 205.31L337.5 203.37L321.11 199.58C320.94 200.77 320.83 201.51 320.83 201.51Z" fill="white"/>
<path opacity="0.3" d="M306.38 184.58C314.61 185.22 322.88 175.9 322.88 175.9C322.503 175.454 322.081 175.049 321.62 174.69C317.045 174.387 312.453 174.457 307.89 174.9C306.036 175.69 304.253 176.637 302.56 177.73C302.56 177.73 299.86 184.09 306.38 184.58Z" fill="white"/>
<path d="M315.73 155.73C315.73 156.8 315.73 158.03 315.73 159.35C315.96 165.27 317.13 172.84 320.96 175.43C319.504 177.564 317.603 179.358 315.388 180.689C313.174 182.02 310.698 182.856 308.13 183.14C303.13 183.85 302.32 180.44 303.13 178.35C304.978 177.73 306.506 176.403 307.38 174.66C308.38 172.28 307.57 169.45 306.38 166.79L315.73 155.73Z" fill="#EEC1BB"/>
<path opacity="0.2" d="M315.73 155.73C315.798 156.936 315.798 158.145 315.73 159.35C315.5 164.15 314.06 172.22 307.34 174.66C308.34 172.28 307.53 169.45 306.34 166.79L315.73 155.73Z" fill="black"/>
<path d="M300.51 147.41C303.9 148.85 303.22 152.56 297.51 159.29C294.05 156.29 292.23 149.42 294.07 147.29C295.91 145.16 297.55 146.17 300.51 147.41Z" fill="#263238"/>
<path d="M314.48 150.45C315.31 155.88 316.08 159.62 315.29 163.02C314.992 164.298 314.478 165.516 313.77 166.62C309.44 173.44 299.77 172.03 296.42 165.14C296.32 164.92 296.22 164.69 296.13 164.46C293.37 158.16 292.35 147.74 298.63 143.46C300.06 142.474 301.72 141.871 303.45 141.708C305.179 141.545 306.922 141.828 308.512 142.53C310.101 143.232 311.484 144.329 312.529 145.717C313.574 147.106 314.245 148.739 314.48 150.46V150.45Z" fill="#EEC1BB"/>
<path d="M304 154.78C304.12 155.38 303.91 155.93 303.52 156.01C303.13 156.09 302.73 155.68 302.6 155.09C302.47 154.5 302.68 153.95 303.06 153.86C303.44 153.77 303.87 154.21 304 154.78Z" fill="#263238"/>
<path d="M297.3 156.24C297.43 156.84 297.21 157.39 296.83 157.47C296.45 157.55 296.02 157.14 295.89 156.54C295.76 155.94 295.97 155.4 296.36 155.32C296.75 155.24 297.17 155.65 297.3 156.24Z" fill="#263238"/>
<path d="M299.56 156.05C299.24 158.015 298.651 159.926 297.81 161.73C298.285 161.939 298.8 162.04 299.319 162.026C299.838 162.012 300.347 161.884 300.81 161.65L299.56 156.05Z" fill="#ED847E"/>
<path d="M305.42 152.26C305.499 152.258 305.574 152.226 305.63 152.17C305.663 152.137 305.69 152.097 305.708 152.053C305.726 152.009 305.736 151.963 305.736 151.915C305.736 151.868 305.726 151.821 305.708 151.777C305.69 151.733 305.663 151.694 305.63 151.66C305.211 151.281 304.707 151.007 304.161 150.863C303.615 150.718 303.042 150.707 302.49 150.83C302.446 150.841 302.404 150.86 302.367 150.887C302.33 150.914 302.299 150.948 302.276 150.987C302.253 151.026 302.237 151.07 302.231 151.115C302.225 151.16 302.228 151.206 302.24 151.25C302.266 151.341 302.326 151.419 302.409 151.466C302.491 151.512 302.588 151.525 302.68 151.5C303.118 151.408 303.571 151.422 304.002 151.54C304.434 151.658 304.83 151.878 305.16 152.18C305.233 152.239 305.326 152.267 305.42 152.26Z" fill="#263238"/>
<path d="M293.74 154.63C293.805 154.614 293.865 154.582 293.914 154.537C293.963 154.491 294 154.434 294.02 154.37C294.113 153.932 294.308 153.523 294.589 153.175C294.871 152.828 295.231 152.552 295.64 152.37C295.728 152.336 295.8 152.269 295.839 152.183C295.879 152.097 295.882 151.999 295.85 151.91C295.82 151.823 295.758 151.751 295.675 151.71C295.593 151.669 295.498 151.662 295.41 151.69C294.887 151.91 294.424 152.253 294.062 152.69C293.7 153.127 293.449 153.645 293.33 154.2C293.318 154.244 293.315 154.29 293.321 154.335C293.327 154.38 293.343 154.424 293.366 154.463C293.389 154.502 293.42 154.536 293.457 154.563C293.494 154.59 293.536 154.61 293.58 154.62H293.74V154.63Z" fill="#263238"/>
<path d="M310.2 144.61C307.04 146.51 308.25 150.1 314.85 155.94C317.85 152.45 318.68 145.42 316.54 143.54C314.4 141.66 313 143 310.2 144.61Z" fill="#263238"/>
<path d="M302.13 165.28C302.068 165.279 302.008 165.256 301.961 165.216C301.914 165.176 301.881 165.121 301.87 165.06C301.861 164.99 301.879 164.919 301.919 164.862C301.96 164.805 302.021 164.765 302.09 164.75C302.993 164.666 303.857 164.338 304.588 163.8C305.319 163.263 305.89 162.537 306.24 161.7C306.249 161.666 306.265 161.635 306.287 161.607C306.309 161.58 306.336 161.558 306.367 161.542C306.398 161.526 306.432 161.516 306.467 161.514C306.502 161.512 306.537 161.518 306.57 161.53C306.636 161.549 306.692 161.593 306.726 161.653C306.76 161.713 306.768 161.784 306.75 161.85C306.378 162.788 305.753 163.605 304.944 164.209C304.136 164.812 303.175 165.18 302.17 165.27L302.13 165.28Z" fill="#263238"/>
<path d="M310.7 147.08C310.7 147.08 310.34 143.02 305.13 143.26C299.92 143.5 298.19 149.26 298.19 149.26C297.889 148.706 297.709 148.093 297.662 147.464C297.616 146.835 297.704 146.203 297.92 145.61C296.758 146.893 296.079 148.541 296 150.27C296 150.27 295 149.45 294.71 146.62L293.57 150C293.57 150 290.91 145.51 296.78 140.37C302.65 135.23 318.87 136.78 315.6 144.03L310.7 147.08Z" fill="#263238"/>
<path d="M301.44 158.36C301.304 158.36 301.171 158.318 301.06 158.24C300.98 158.19 300.912 158.125 300.859 158.047C300.805 157.97 300.768 157.882 300.75 157.79L300.24 155.26C300.205 155.076 300.244 154.885 300.349 154.73C300.454 154.574 300.616 154.466 300.8 154.43L305.41 153.5C305.501 153.481 305.594 153.48 305.685 153.498C305.776 153.515 305.863 153.551 305.94 153.602C306.017 153.653 306.083 153.719 306.135 153.796C306.186 153.873 306.222 153.959 306.24 154.05L306.75 156.59C306.788 156.773 306.752 156.964 306.65 157.12C306.541 157.271 306.381 157.378 306.2 157.42L301.58 158.35H301.44V158.36ZM305.53 153.99L300.91 154.92C300.858 154.932 300.812 154.964 300.782 155.008C300.752 155.053 300.741 155.107 300.75 155.16L301.27 157.7C301.283 157.751 301.311 157.796 301.35 157.83C301.401 157.85 301.459 157.85 301.51 157.83L306.12 156.9C306.147 156.895 306.172 156.884 306.194 156.869C306.217 156.853 306.236 156.833 306.25 156.81C306.268 156.762 306.268 156.708 306.25 156.66L305.74 154.12C305.724 154.083 305.697 154.052 305.663 154.031C305.63 154.01 305.59 153.999 305.55 154L305.53 153.99Z" fill="#263238"/>
<path d="M293.9 159.88C293.737 159.881 293.578 159.824 293.452 159.72C293.326 159.616 293.24 159.471 293.21 159.31L292.7 156.78C292.681 156.69 292.68 156.596 292.698 156.505C292.715 156.414 292.751 156.328 292.802 156.25C292.853 156.173 292.919 156.107 292.996 156.055C293.073 156.004 293.159 155.968 293.25 155.95L297.86 155.02C297.951 155.001 298.044 155 298.135 155.018C298.226 155.035 298.313 155.071 298.39 155.122C298.467 155.173 298.533 155.239 298.585 155.316C298.636 155.393 298.672 155.479 298.69 155.57L299.2 158.11C299.219 158.201 299.22 158.294 299.202 158.385C299.185 158.476 299.15 158.563 299.098 158.64C299.047 158.717 298.981 158.784 298.904 158.835C298.827 158.887 298.741 158.922 298.65 158.94L294.04 159.86L293.9 159.88ZM297.99 155.5L293.38 156.43C293.328 156.442 293.282 156.474 293.252 156.518C293.223 156.563 293.211 156.617 293.22 156.67L293.73 159.2C293.735 159.227 293.745 159.252 293.76 159.274C293.774 159.297 293.794 159.316 293.816 159.331C293.838 159.346 293.864 159.356 293.89 159.361C293.917 159.366 293.944 159.366 293.97 159.36L298.58 158.44C298.632 158.428 298.678 158.397 298.708 158.352C298.738 158.307 298.749 158.253 298.74 158.2L298.23 155.66C298.22 155.609 298.191 155.563 298.148 155.533C298.105 155.503 298.052 155.491 298 155.5H297.99Z" fill="#263238"/>
<path d="M298.58 156.52C298.548 156.521 298.517 156.515 298.488 156.503C298.459 156.491 298.432 156.473 298.41 156.45C298.364 156.403 298.339 156.341 298.339 156.275C298.339 156.21 298.364 156.147 298.41 156.1C298.71 155.806 299.088 155.604 299.5 155.519C299.911 155.434 300.338 155.469 300.73 155.62C300.761 155.632 300.79 155.65 300.814 155.674C300.838 155.697 300.857 155.725 300.87 155.756C300.883 155.786 300.89 155.819 300.89 155.853C300.89 155.886 300.883 155.919 300.87 155.95C300.859 155.981 300.842 156.009 300.82 156.033C300.797 156.057 300.77 156.076 300.74 156.089C300.71 156.102 300.678 156.109 300.645 156.109C300.613 156.109 300.58 156.103 300.55 156.09C300.252 155.974 299.928 155.945 299.614 156.007C299.301 156.069 299.011 156.219 298.78 156.44C298.755 156.468 298.724 156.489 298.689 156.503C298.655 156.517 298.617 156.523 298.58 156.52Z" fill="#263238"/>
<path d="M306.1 154.89C306.043 154.889 305.989 154.869 305.945 154.832C305.901 154.796 305.871 154.746 305.86 154.69C305.853 154.658 305.852 154.625 305.857 154.592C305.863 154.56 305.875 154.528 305.893 154.501C305.91 154.473 305.933 154.449 305.96 154.43C305.987 154.411 306.018 154.397 306.05 154.39L314.77 152.39C314.802 152.383 314.836 152.382 314.868 152.387C314.901 152.393 314.932 152.405 314.96 152.423C314.988 152.44 315.012 152.463 315.031 152.49C315.05 152.517 315.063 152.548 315.07 152.58C315.077 152.612 315.078 152.646 315.073 152.678C315.067 152.711 315.055 152.742 315.038 152.77C315.02 152.798 314.997 152.822 314.97 152.841C314.943 152.86 314.912 152.873 314.88 152.88L306.16 154.88L306.1 154.89Z" fill="#263238"/>
<path d="M319.21 155.53C319.082 157.405 318.215 159.153 316.8 160.39C314.92 162.01 312.93 160.57 312.57 158.24C312.25 156.14 312.85 152.77 315.17 152.05C317.49 151.33 319.36 153.23 319.21 155.53Z" fill="#EEC1BB"/>
<path d="M212.18 321.94C212.18 321.94 228.79 261.78 231.54 258.32C236 252.67 279 246.7 279 246.7L290.25 227.25L330.87 232.94C330.87 232.94 327.87 261.51 322.87 268.87C317.87 276.23 252.42 275 248.07 276.43C243.72 277.86 227.26 324.82 227.26 324.82L212.18 321.94Z" fill="#263238"/>
<path opacity="0.2" d="M279.04 246.7L293.71 245.05L280.61 243.99L279.04 246.7Z" fill="black"/>
<path opacity="0.2" d="M212.18 321.93L227.33 324.81C227.33 324.81 243.78 277.86 248.14 276.43C252.5 275 317.97 276.23 322.94 268.87C327.91 261.51 330.94 232.94 330.94 232.94L290.32 227.25L287 233L285.14 236.21L279 246.7C279 246.7 236 252.7 231.5 258.32C228.79 261.77 212.18 321.93 212.18 321.93Z" fill="white"/>
<path d="M309.51 244C309.51 244 262.35 225.93 249.51 230.94C236.67 235.95 196.07 281.25 196.07 281.25L205.25 292.87C205.25 292.87 246.37 253.8 251.18 251.57C255.99 249.34 304.28 273.57 304.28 273.57L309.51 244Z" fill="#263238"/>
<path opacity="0.2" d="M309.51 244C309.51 244 262.35 225.93 249.51 230.94C236.67 235.95 196.07 281.25 196.07 281.25L205.25 292.87C205.25 292.87 246.37 253.8 251.18 251.57C255.99 249.34 304.28 273.57 304.28 273.57L309.51 244Z" fill="white"/>
<path d="M189.31 299.4L185.21 292.52L197.64 280.91L201.73 287.78L189.31 299.4Z" fill="#EEC1BB"/>
<path opacity="0.2" d="M201.73 287.78L197.63 280.91L190.53 287.55L194.89 294.19L201.73 287.78Z" fill="black"/>
<path d="M184.49 291.67C184.49 291.67 184.44 291.55 184.49 291.54L184.43 291.41L184.5 291.53C184.59 291.46 186.42 290.12 186.5 289.01C186.503 288.872 186.475 288.734 186.418 288.608C186.361 288.482 186.276 288.37 186.17 288.28C186.06 288.168 185.915 288.096 185.759 288.076C185.603 288.056 185.445 288.089 185.31 288.17C184.796 288.633 184.466 289.265 184.38 289.95C184.28 289.179 183.908 288.47 183.33 287.95C183.226 287.893 183.109 287.864 182.99 287.864C182.871 287.864 182.754 287.893 182.65 287.95C182.475 288.022 182.324 288.141 182.214 288.295C182.104 288.449 182.041 288.631 182.03 288.82C182.088 289.352 182.341 289.844 182.74 290.2C183.229 290.718 183.776 291.178 184.37 291.57C184.366 291.58 184.363 291.59 184.363 291.6C184.363 291.611 184.366 291.621 184.37 291.63C184.37 291.63 184.37 291.63 184.43 291.63C184.446 291.649 184.467 291.662 184.49 291.67ZM185.41 288.53C185.5 288.47 185.65 288.43 185.85 288.61L185.92 288.67C186.019 288.783 186.069 288.93 186.06 289.08C186.06 289.74 185.14 290.64 184.56 291.14V290.95C184.554 290.069 184.855 289.214 185.41 288.53ZM182.33 288.9C182.344 288.782 182.389 288.67 182.459 288.573C182.529 288.477 182.622 288.4 182.73 288.35C182.783 288.323 182.841 288.309 182.9 288.309C182.959 288.309 183.017 288.323 183.07 288.35C183.57 288.61 183.96 290.04 184.15 291.13C183 290.24 182.31 289.43 182.33 288.9Z" fill="#007BD0"/>
<path d="M185.59 291.45L191.59 298.12C191.695 298.227 191.754 298.37 191.754 298.52C191.754 298.67 191.695 298.814 191.59 298.92L186.59 304.01C186.312 304.262 185.946 304.394 185.571 304.378C185.197 304.361 184.844 304.196 184.59 303.92C182.53 301.56 181.66 300.33 179.03 297.38C177.41 295.58 174.03 292.16 172.21 289.38C170.39 286.6 173.21 284.83 174.21 285.86C176.65 288.3 181.44 290.27 184.21 290.76C184.737 290.82 185.226 291.065 185.59 291.45Z" fill="#263238"/>
<path d="M203.77 296.55L191.92 283.53L196.87 277.67L209.59 292.2L203.77 296.55Z" fill="#007BD0"/>
<path opacity="0.2" d="M203.77 296.55L191.92 283.53L196.87 277.67L209.59 292.2L203.77 296.55Z" fill="white"/>
<path d="M209.34 335.37C209.34 335.37 209.24 335.29 209.24 335.28L209.13 335.19L209.25 335.27C209.25 335.15 210.25 333.09 209.74 332.11C209.677 331.985 209.585 331.876 209.473 331.792C209.36 331.709 209.228 331.653 209.09 331.63C208.94 331.585 208.779 331.592 208.634 331.65C208.488 331.708 208.367 331.814 208.29 331.95C208.068 332.602 208.09 333.312 208.35 333.95C207.76 333.33 207.03 332.71 206.46 332.74C206.342 332.745 206.227 332.781 206.127 332.845C206.027 332.908 205.945 332.996 205.89 333.1C205.772 333.248 205.698 333.425 205.677 333.613C205.656 333.8 205.688 333.99 205.77 334.16C206.083 334.597 206.546 334.903 207.07 335.02C207.75 335.228 208.451 335.362 209.16 335.42C209.169 335.425 209.179 335.428 209.19 335.428C209.2 335.428 209.211 335.425 209.22 335.42C209.22 335.42 209.22 335.42 209.27 335.42C209.299 335.413 209.324 335.395 209.34 335.37ZM208.62 332.18C208.62 332.08 208.77 331.98 209.04 332.04H209.12C209.192 332.064 209.258 332.102 209.315 332.151C209.371 332.201 209.417 332.262 209.45 332.33C209.617 333.181 209.512 334.062 209.15 334.85L209.03 334.7C208.601 333.935 208.456 333.042 208.62 332.18ZM206.1 334C206.057 333.888 206.043 333.767 206.059 333.649C206.074 333.53 206.12 333.417 206.19 333.32C206.219 333.27 206.259 333.227 206.308 333.196C206.357 333.165 206.412 333.145 206.47 333.14C207.03 333.14 208.08 334.14 208.77 335.04C207.33 334.85 206.34 334.48 206.1 334Z" fill="#007BD0"/>
<path d="M217.32 339.76L210.39 335.76L215.91 318.93L222.84 322.94L217.32 339.76Z" fill="#EEC1BB"/>
<path opacity="0.2" d="M222.84 322.94L215.91 318.94L212.75 328.56L219.81 332.21L222.84 322.94Z" fill="black"/>
<path d="M210.2 334.64L218.71 337.52C218.781 337.541 218.848 337.575 218.905 337.622C218.963 337.668 219.011 337.726 219.046 337.791C219.082 337.856 219.104 337.927 219.111 338.001C219.119 338.075 219.112 338.149 219.09 338.22L217.23 345.1C217.109 345.452 216.855 345.743 216.522 345.909C216.189 346.076 215.804 346.105 215.45 345.99C212.5 344.94 211.14 344.29 207.45 342.99C205.15 342.2 200.54 340.88 197.57 339.31C194.6 337.74 196.22 334.85 197.62 335.25C200.93 336.19 206.08 335.58 208.78 334.62C209.243 334.476 209.741 334.483 210.2 334.64Z" fill="#263238"/>
<path d="M226.68 330.21L209.99 324.64L211.44 317.11L229.64 323.58L226.68 330.21Z" fill="#007BD0"/>
<path opacity="0.2" d="M226.68 330.21L209.99 324.64L211.44 317.11L229.64 323.58L226.68 330.21Z" fill="white"/>
<path opacity="0.2" d="M299.66 271.32C299.66 271.32 257.66 250.17 250.01 247.32C242.36 244.47 226.01 253.55 223.16 276.01L226.53 272.33C226.53 272.33 230.45 260.06 231.53 258.33C232.61 256.6 252.77 253.61 252.77 253.61C252.77 253.61 283.91 269.22 299.66 271.32Z" fill="black"/>
<path opacity="0.2" d="M285.11 236.2L304.26 242.06C304.26 242.06 293.09 235.78 287 233L285.11 236.2Z" fill="black"/>
<path opacity="0.4" d="M318.2 232.32L330.91 233.91L330.42 237.76L316.87 236.16L318.2 232.32Z" fill="black"/>
<path opacity="0.4" d="M316.26 231.97L314.92 235.85L288.75 231.7L290.38 228.21L316.26 231.97Z" fill="black"/>
<path d="M302.48 231L301.59 233.56C301.473 233.872 301.252 234.135 300.964 234.304C300.677 234.473 300.34 234.539 300.01 234.49L295.52 233.71C295.373 233.688 295.232 233.634 295.108 233.55C294.984 233.467 294.881 233.357 294.805 233.229C294.729 233.1 294.683 232.956 294.67 232.808C294.657 232.659 294.678 232.51 294.73 232.37L295.62 229.8C295.736 229.489 295.955 229.228 296.241 229.061C296.527 228.893 296.862 228.829 297.19 228.88L301.68 229.66C301.828 229.681 301.97 229.734 302.095 229.817C302.22 229.9 302.325 230.009 302.402 230.138C302.478 230.267 302.525 230.411 302.539 230.56C302.553 230.709 302.532 230.86 302.48 231Z" fill="white"/>
<path d="M316.09 278.63L319.31 241.79C319.64 238.059 321.354 234.586 324.115 232.054C326.876 229.522 330.484 228.116 334.23 228.11H389.36C390.234 228.11 391.099 228.291 391.899 228.643C392.699 228.994 393.417 229.508 394.008 230.153C394.599 230.797 395.049 231.557 395.33 232.385C395.611 233.212 395.716 234.089 395.64 234.96L394.85 243.96C394.726 245.394 394.115 246.742 393.118 247.779C392.12 248.816 390.798 249.48 389.37 249.66L387.6 249.89C386.537 250.026 385.552 250.521 384.809 251.295C384.067 252.068 383.612 253.072 383.52 254.14L379.21 303.4C379.049 305.13 378.25 306.738 376.969 307.911C375.689 309.085 374.017 309.74 372.28 309.75H316.09V278.63Z" fill="#263238"/>
<path opacity="0.6" d="M316.09 278.63L319.31 241.79C319.64 238.059 321.354 234.586 324.115 232.054C326.876 229.522 330.484 228.116 334.23 228.11H389.36C390.234 228.11 391.099 228.291 391.899 228.643C392.699 228.994 393.417 229.508 394.008 230.153C394.599 230.797 395.049 231.557 395.33 232.385C395.611 233.212 395.716 234.089 395.64 234.96L394.85 243.96C394.726 245.394 394.115 246.742 393.118 247.779C392.12 248.816 390.798 249.48 389.37 249.66L387.6 249.89C386.537 250.026 385.552 250.521 384.809 251.295C384.067 252.068 383.612 253.072 383.52 254.14L379.21 303.4C379.049 305.13 378.25 306.738 376.969 307.911C375.689 309.085 374.017 309.74 372.28 309.75H316.09V278.63Z" fill="white"/>
<g opacity="0.2">
<path d="M339.45 303.38L343.76 254.12C343.852 253.052 344.307 252.048 345.049 251.275C345.792 250.501 346.777 250.006 347.84 249.87L349.62 249.64C351.047 249.462 352.37 248.798 353.366 247.76C354.362 246.722 354.97 245.373 355.09 243.94L355.88 234.94C355.956 234.069 355.851 233.192 355.57 232.365C355.289 231.537 354.839 230.777 354.248 230.133C353.657 229.488 352.939 228.974 352.139 228.622C351.339 228.271 350.474 228.09 349.6 228.09H389.36C390.234 228.09 391.099 228.271 391.899 228.622C392.699 228.974 393.417 229.488 394.008 230.133C394.599 230.777 395.049 231.537 395.33 232.365C395.611 233.192 395.716 234.069 395.64 234.94L394.85 243.94C394.726 245.374 394.115 246.722 393.118 247.759C392.12 248.796 390.798 249.46 389.37 249.64L387.6 249.87C386.537 250.006 385.552 250.501 384.809 251.275C384.067 252.048 383.612 253.052 383.52 254.12L379.21 303.38C379.049 305.11 378.25 306.718 376.969 307.891C375.689 309.065 374.017 309.72 372.28 309.73H332.52C334.257 309.72 335.929 309.065 337.209 307.891C338.49 306.718 339.289 305.11 339.45 303.38Z" fill="black"/>
</g>
<path opacity="0.1" d="M316.09 278.63L319.31 241.79C319.64 238.059 321.354 234.586 324.115 232.054C326.876 229.522 330.484 228.116 334.23 228.11H349.6C350.474 228.11 351.339 228.291 352.139 228.643C352.939 228.994 353.657 229.508 354.248 230.153C354.839 230.797 355.289 231.557 355.57 232.385C355.851 233.212 355.956 234.089 355.88 234.96L355.09 243.96C354.97 245.393 354.362 246.742 353.366 247.78C352.37 248.818 351.047 249.482 349.62 249.66L347.84 249.89C346.777 250.026 345.792 250.521 345.049 251.295C344.307 252.068 343.852 253.072 343.76 254.14L339.45 303.4C339.289 305.13 338.49 306.738 337.209 307.911C335.929 309.085 334.257 309.74 332.52 309.75H316.09V278.63Z" fill="white"/>
</g>
<defs>
<clipPath id="clip0_4892_6">
<rect width="500" height="399" fill="white"/>
</clipPath>
</defs>
</svg>
