<svg width="32" height="32" viewBox="0 0 32 32" fill="none" xmlns="http://www.w3.org/2000/svg">
<path d="M1.99997 30.9999C1.85885 31.0008 1.71916 30.9718 1.59006 30.9148C1.46096 30.8578 1.34539 30.7741 1.25094 30.6693C1.15648 30.5644 1.08529 30.4408 1.04203 30.3065C0.998778 30.1722 0.984442 30.0302 0.999967 29.8899L1.89997 21.7199C1.92519 21.4927 2.02754 21.2809 2.18997 21.1199L21.27 2.04994C21.6008 1.71705 21.9942 1.45286 22.4276 1.27259C22.8609 1.09232 23.3256 0.999512 23.795 0.999512C24.2643 0.999512 24.729 1.09232 25.1624 1.27259C25.5957 1.45286 25.9891 1.71705 26.32 2.04994L30 5.67993C30.3329 6.01079 30.597 6.40421 30.7773 6.83755C30.9576 7.27088 31.0504 7.73559 31.0504 8.20494C31.0504 8.67428 30.9576 9.13899 30.7773 9.57232C30.597 10.0057 30.3329 10.3991 30 10.7299L10.88 29.7999C10.719 29.9624 10.5072 30.0647 10.28 30.0899L2.10997 30.9999H1.99997ZM3.85997 22.2799L3.12997 28.8699L9.71997 28.1399L28.54 9.30994C28.8319 9.01424 28.9956 8.61545 28.9956 8.19993C28.9956 7.78442 28.8319 7.38564 28.54 7.08994L24.91 3.45994C24.6143 3.16802 24.2155 3.00435 23.8 3.00435C23.3845 3.00435 22.9857 3.16802 22.69 3.45994L3.85997 22.2799Z" fill="white"/>
<path d="M26.5199 13.7401C26.2576 13.739 26.0062 13.6349 25.8199 13.4501L18.5499 6.18013C18.363 5.98785 18.26 5.72916 18.2638 5.46099C18.2675 5.19281 18.3777 4.93711 18.5699 4.75013C18.7622 4.56315 19.0209 4.46022 19.2891 4.46397C19.5573 4.46772 19.813 4.57785 19.9999 4.77013L27.2299 12.0001C27.4162 12.1875 27.5207 12.4409 27.5207 12.7051C27.5207 12.9693 27.4162 13.2228 27.2299 13.4101C27.1399 13.5101 27.0306 13.5908 26.9086 13.6475C26.7866 13.7042 26.6544 13.7357 26.5199 13.7401Z" fill="white"/>
<path d="M18.5429 12.0404L9.46362 21.1196L10.8778 22.5338L19.9571 13.4546L18.5429 12.0404Z" fill="white"/>
</svg>
