<svg width="14" height="14" viewBox="0 0 14 14" fill="none" xmlns="http://www.w3.org/2000/svg">
<path d="M7.2963 0.729063L8.82963 4.0624C8.8963 4.2624 9.0963 4.39573 9.2963 4.4624L12.763 4.99573C13.363 4.99573 13.563 5.6624 13.163 6.0624L10.6296 8.6624C10.4963 8.79573 10.4296 9.0624 10.4296 9.2624L11.0296 12.8624C11.0963 13.3957 10.563 13.8624 10.0963 13.5957L6.96296 11.8624C6.76296 11.7291 6.56296 11.7291 6.36296 11.8624L3.22963 13.5957C2.76296 13.8624 2.16296 13.4624 2.2963 12.8624L2.8963 9.2624C2.96296 9.0624 2.82963 8.79573 2.6963 8.6624L0.162963 6.0624C-0.17037 5.6624 0.0296296 4.99573 0.562963 4.92906L4.02963 4.39573C4.22963 4.39573 4.42963 4.19573 4.4963 3.99573L6.02963 0.662396C6.36296 0.195729 7.02963 0.195729 7.2963 0.729063Z" fill="#F7B731"/>
</svg>
