<svg width="500" height="404" viewBox="0 0 500 404" fill="none" xmlns="http://www.w3.org/2000/svg">
<path d="M442.36 361C420.65 371.26 385.51 371.14 363.87 360.73C342.23 350.32 342.29 333.58 364 323.32C385.71 313.06 420.85 313.19 442.49 323.59C464.13 333.99 464.07 350.72 442.36 361Z" fill="#EEEEEE"/>
<path d="M320.51 44.56L327.32 48.49C327.32 48.19 327.26 47.89 327.26 47.59V45.59C327.26 42.08 329.73 40.65 332.77 42.41C334.078 43.2116 335.196 44.2861 336.05 45.56C336.55 41.15 340.05 39.5 344.22 41.93C348.77 44.56 352.46 50.93 352.46 56.2V59.2C352.489 60.3772 352.253 61.5459 351.77 62.62L357.42 65.88C358.311 66.4611 359.052 67.2437 359.583 68.1645C360.115 69.0853 360.422 70.1183 360.48 71.18C360.48 73.12 359.11 73.91 357.42 72.94L320.51 51.61C319.619 51.0317 318.878 50.2511 318.346 49.3317C317.814 48.4124 317.507 47.3805 317.45 46.32C317.45 44.38 318.82 43.59 320.51 44.56Z" fill="#EBEBEB"/>
<path d="M291.35 64.41L296.49 67.41C296.49 67.18 296.49 66.95 296.49 66.73V65.21C296.49 62.56 298.35 61.48 300.65 62.81C301.636 63.4154 302.478 64.2274 303.12 65.19C303.5 61.86 306.12 60.62 309.29 62.45C311.102 63.6284 312.609 65.2181 313.69 67.0897C314.771 68.9613 315.395 71.0618 315.51 73.22V75.45C315.533 76.3392 315.352 77.222 314.98 78.03L319.25 80.5C319.924 80.9361 320.485 81.5262 320.887 82.2216C321.288 82.9171 321.519 83.698 321.56 84.5C321.56 85.97 320.56 86.57 319.25 85.83L291.35 69.73C290.678 69.2915 290.12 68.7007 289.721 68.0056C289.321 67.3105 289.091 66.5308 289.05 65.73C289.05 64.27 290.08 63.67 291.35 64.41Z" fill="#EBEBEB"/>
<path d="M108.6 317.2L115.22 313.42C115.22 313.42 118.4 295.9 116.03 280.84C112.68 259.66 98.2696 252.36 93.0296 254.46C87.7896 256.56 86.5596 262.84 96.0296 275.08C101.6 282.29 108.77 297.55 108.6 317.2Z" fill="#007BD0"/>
<g opacity="0.1">
<path d="M108.6 317.2L115.22 313.42C115.22 313.42 118.4 295.9 116.03 280.84C112.68 259.66 98.2696 252.36 93.0296 254.46C87.7896 256.56 86.5596 262.84 96.0296 275.08C101.6 282.29 108.77 297.55 108.6 317.2Z" fill="black"/>
</g>
<path d="M110.999 308.79H110.929C110.806 308.773 110.695 308.707 110.62 308.608C110.545 308.508 110.512 308.383 110.529 308.26C113.269 288.43 105.299 266.72 96.3395 257.96C96.2506 257.872 96.2002 257.753 96.1992 257.629C96.1983 257.504 96.2469 257.384 96.3345 257.295C96.422 257.206 96.5412 257.156 96.6659 257.155C96.7906 257.154 96.9106 257.203 96.9995 257.29C106.119 266.2 114.249 288.29 111.469 308.39C111.451 308.501 111.393 308.602 111.307 308.676C111.221 308.749 111.112 308.789 110.999 308.79Z" fill="white"/>
<path d="M90.2098 327.83C89.2098 328.43 86.9998 327.11 86.2098 326.56C84.7939 325.592 83.6506 324.277 82.8898 322.74C82.0338 320.999 81.7436 319.034 82.0598 317.12C82.2202 316.103 82.4575 315.101 82.7698 314.12C83.0498 313.12 83.3198 312.18 83.5998 311.21C83.9405 310.273 84.0868 309.276 84.0298 308.28C83.7698 306.28 82.0298 304.91 80.4098 303.71C78.6398 302.38 76.7898 300.63 76.7998 298.24C76.935 296.387 77.6765 294.63 78.9098 293.24C80.0498 291.8 81.4098 290.52 82.4398 288.99C83.2516 287.923 83.6749 286.61 83.6398 285.27C83.5328 284.451 83.2607 283.661 82.8398 282.95C81.866 281.471 81.0132 279.916 80.2898 278.3C79.7098 276.63 79.7998 274.55 81.0998 273.35C81.684 272.918 82.3483 272.608 83.0541 272.436C83.7598 272.264 84.4927 272.235 85.2098 272.35C86.5542 272.509 87.8476 272.959 88.9998 273.67C92.7998 275.78 94.9998 280.28 98.9998 281.9C100.597 282.399 102.223 282.796 103.87 283.09C104.692 283.246 105.473 283.572 106.162 284.047C106.851 284.522 107.432 285.136 107.87 285.85C109.35 288.8 106.61 292.44 107.65 295.57C108.57 298.35 111.26 299.41 112.78 301.91C113.396 303.014 113.641 304.286 113.48 305.54C113.352 307.66 112.833 309.738 111.95 311.67C110.971 313.596 109.848 315.444 108.59 317.2C108.53 317.26 90.3698 327.73 90.2098 327.83Z" fill="#007BD0"/>
<path d="M100.999 322.09C100.937 322.089 100.875 322.075 100.818 322.049C100.761 322.024 100.709 321.987 100.666 321.942C100.623 321.896 100.59 321.842 100.568 321.784C100.547 321.725 100.537 321.663 100.539 321.6C101.319 302.84 92.4794 282.13 86.0494 276.11C86.0041 276.067 85.9676 276.016 85.9421 275.959C85.9166 275.903 85.9025 275.841 85.9006 275.779C85.8987 275.717 85.9092 275.655 85.9313 275.597C85.9533 275.539 85.9867 275.485 86.0294 275.44C86.072 275.395 86.1232 275.358 86.18 275.333C86.2368 275.307 86.298 275.293 86.3602 275.291C86.4224 275.289 86.4844 275.3 86.5426 275.322C86.6008 275.344 86.6541 275.377 86.6994 275.42C93.2594 281.56 102.279 302.61 101.489 321.64C101.487 321.702 101.472 321.762 101.446 321.818C101.42 321.874 101.383 321.925 101.338 321.967C101.292 322.008 101.239 322.041 101.181 322.062C101.123 322.083 101.061 322.093 100.999 322.09Z" fill="white"/>
<path d="M98.1497 299.93H98.0097C93.5673 298.7 89.0032 297.963 84.3997 297.73C84.3379 297.727 84.2773 297.713 84.2213 297.687C84.1652 297.661 84.1148 297.624 84.0731 297.578C84.0313 297.533 83.9988 297.48 83.9777 297.421C83.9565 297.363 83.947 297.302 83.9497 297.24C83.9494 297.177 83.9622 297.115 83.9873 297.058C84.0124 297.001 84.0492 296.949 84.0953 296.907C84.1414 296.864 84.1958 296.832 84.2552 296.812C84.3145 296.792 84.3773 296.784 84.4397 296.79C89.1233 297.018 93.7678 297.759 98.2897 299C98.413 299.019 98.5239 299.085 98.598 299.186C98.672 299.286 98.7032 299.412 98.6847 299.535C98.6661 299.658 98.5993 299.769 98.499 299.843C98.3986 299.917 98.273 299.949 98.1497 299.93Z" fill="white"/>
<path d="M87.7503 340.72V333.35H89.5703C91.6903 329.05 95.6503 325 101.5 321.63C119.85 311.03 149.6 311.03 167.95 321.63C173.81 325 177.77 329.05 179.89 333.35H181.69V340.48C181.84 347.48 177.27 354.61 167.95 359.99C149.6 370.58 119.85 370.58 101.5 359.99C92.2903 354.67 87.7103 347.69 87.7503 340.72Z" fill="#263238"/>
<path d="M168 314.16C149.65 303.57 119.9 303.57 101.55 314.16C83.1996 324.75 83.1996 341.93 101.55 352.53C119.9 363.13 149.65 363.12 168 352.53C186.35 341.94 186.3 324.76 168 314.16Z" fill="#455A64"/>
<path d="M146.829 201.08V330.08C146.829 331.86 145.649 333.65 143.289 335.01C138.569 337.74 130.909 337.74 126.189 335.01C123.829 333.65 122.649 331.86 122.649 330.08V201.08H146.829Z" fill="#37474F"/>
<path d="M122.64 231.58V240.32L146.83 254.26V245.58L122.64 231.58Z" fill="#263238"/>
<path d="M260.32 117.69L258.26 121.82L236.11 166.22L225.6 187.32L190 258.66L186.08 266.52C185.847 266.52 185.617 266.52 185.39 266.52C183.993 266.537 182.615 266.193 181.39 265.52L39.5898 183.52C38.4272 182.763 37.4592 181.743 36.7642 180.543C36.0693 179.342 35.6669 177.995 35.5898 176.61V115.51C35.5898 84.96 55.6998 48.59 80.5298 34.25C92.3398 27.46 103 26.91 111 31.4V31.34L260.32 117.69Z" fill="#455A64"/>
<path d="M230.37 120.92C220.37 124.63 183.89 154.74 183.89 202.15C183.89 242.01 183.94 262.7 183.95 266.42C184.435 266.504 184.927 266.547 185.42 266.55C185.653 266.55 185.883 266.55 186.11 266.55L190.03 258.69L225.6 187.35L236.11 166.26L238.52 161.43L230.37 120.92Z" fill="#37474F"/>
<path d="M273.36 216.45C272.941 217.104 272.376 217.652 271.71 218.05L271.3 218.31L189.42 265.58C188.403 266.133 187.275 266.451 186.12 266.51C185.886 266.51 185.656 266.51 185.43 266.51V202.11C185.43 191.11 188.05 179.39 192.55 168.18L196.55 170.52L225.55 187.28L270.62 213.28L272.93 214.61C273.098 214.684 273.246 214.795 273.364 214.936C273.481 215.077 273.564 215.244 273.605 215.422C273.647 215.601 273.647 215.787 273.604 215.965C273.561 216.144 273.478 216.31 273.36 216.45Z" fill="#37474F"/>
<path d="M260.32 117.7C252.38 113.53 241.88 114.26 230.37 120.92C217.46 128.35 205.81 141.79 197.63 157.25C195.737 160.822 194.037 164.494 192.54 168.25C188.04 179.46 185.42 191.19 185.42 202.18V266.58C185.653 266.58 185.883 266.58 186.11 266.58C187.266 266.521 188.393 266.203 189.41 265.65L271.29 218.38L271.7 218.12C272.326 217.671 272.882 217.132 273.35 216.52C274.504 215.099 275.176 213.348 275.27 211.52V150.27C275.28 133.9 269.5 122.52 260.32 117.7ZM269.48 214L191.23 259.18C190.57 259.56 190.03 259.25 190.03 258.49V202.15C190.03 192.32 192.3 181.42 196.58 170.56C196.649 170.349 196.73 170.143 196.82 169.94C198.403 165.965 200.223 162.088 202.27 158.33C210.22 143.64 221.09 131.57 232.68 124.91C238.63 121.46 244.27 119.72 249.43 119.72C252.502 119.684 255.536 120.409 258.26 121.83C266.09 126 270.67 136.13 270.67 150.27V212C270.638 212.402 270.513 212.792 270.307 213.138C270.101 213.485 269.818 213.78 269.48 214Z" fill="#455A64"/>
<path d="M351.15 283.77V278.14H350.62V278.94C350.279 277.376 349.787 275.849 349.15 274.38C346.15 267.48 339.96 260.86 330.44 255.38L277.49 224.81C276.251 224.18 274.88 223.852 273.49 223.852C272.1 223.852 270.729 224.18 269.49 224.81L188.49 271.55C187.482 270.752 186.614 269.792 185.92 268.71V274.39C185.965 274.887 186.142 275.363 186.432 275.769C186.722 276.175 187.115 276.496 187.57 276.7L240.57 307.26C254.74 315.45 273.27 319.47 291.22 319.26C306.75 319.06 321.85 315.66 333.36 309.01C345.26 302.17 351.13 293.09 351.13 283.82L351.15 283.77Z" fill="#263238"/>
<path d="M349.15 274.38C346.15 267.48 339.96 260.86 330.44 255.38L277.49 224.81C276.251 224.18 274.88 223.852 273.49 223.852C272.1 223.852 270.73 224.18 269.49 224.81L188.49 271.55L240.49 301.55C254.66 309.74 273.19 313.76 291.14 313.55C306.67 313.34 321.77 309.95 333.28 303.3C343.96 297.15 349.8 289.21 350.87 280.94C350.618 278.681 350.039 276.472 349.15 274.38Z" fill="#455A64"/>
<path d="M351 280.93C350.718 278.67 350.109 276.464 349.19 274.38C346.19 267.48 340 260.86 330.48 255.38L277.53 224.81C276.291 224.18 274.92 223.852 273.53 223.852C272.14 223.852 270.769 224.18 269.53 224.81L188.53 271.55L187.61 271.03C185.41 269.75 185.41 267.69 187.61 266.42L269.49 219.14C270.729 218.51 272.1 218.182 273.49 218.182C274.88 218.182 276.251 218.51 277.49 219.14L330.44 249.71C339.96 255.21 346.19 261.83 349.15 268.71C350.123 270.936 350.753 273.296 351.02 275.71C351.22 277.445 351.214 279.197 351 280.93Z" fill="#37474F"/>
<path d="M270.67 150.27V213.35L196.58 170.56C196.65 170.349 196.73 170.143 196.82 169.94C204.76 150.09 218.16 133.26 232.68 124.94C238.63 121.49 244.27 119.75 249.43 119.75C262.53 119.72 270.67 131.42 270.67 150.27Z" fill="#263238"/>
<path d="M137.27 198.64L143.79 194.88H143.84C146.07 193.62 149.14 193.81 152.53 195.77C159.35 199.71 164.88 209.29 164.88 217.17C164.88 221.1 163.5 223.87 161.28 225.17L155.22 228.64L154.12 226.81C152.876 226.533 151.683 226.067 150.58 225.43C143.76 221.49 138.22 211.91 138.22 204.03C138.222 202.968 138.353 201.91 138.61 200.88L137.27 198.64Z" fill="#E0E0E0"/>
<path d="M146.259 199.35C153.079 203.29 158.619 212.87 158.619 220.75C158.619 228.63 153.079 231.82 146.259 227.88C139.439 223.94 133.899 214.36 133.899 206.48C133.899 198.6 139.429 195.41 146.259 199.35Z" fill="#FAFAFA"/>
<path d="M146.26 217C145.31 217 144.4 216.623 143.728 215.951C143.057 215.28 142.68 214.369 142.68 213.42V112.14C142.68 111.191 143.057 110.28 143.728 109.609C144.4 108.937 145.31 108.56 146.26 108.56C147.209 108.56 148.12 108.937 148.791 109.609C149.463 110.28 149.84 111.191 149.84 112.14V213.43C149.837 214.378 149.459 215.286 148.788 215.955C148.117 216.624 147.207 217 146.26 217Z" fill="#EBEBEB"/>
<path d="M142.68 122.15L106.78 101.43L118.02 123.04L106.78 131.69L142.68 152.41V122.15Z" fill="#007BD0"/>
<path d="M330.119 215.7C330.083 215.024 329.888 214.367 329.549 213.781C329.21 213.195 328.737 212.698 328.169 212.33L228.479 154.77C227.877 154.464 227.21 154.305 226.534 154.305C225.859 154.305 225.192 154.464 224.589 154.77L222.389 156.04C221.82 156.409 221.347 156.908 221.008 157.495C220.669 158.083 220.474 158.743 220.439 159.42V235.83C220.478 236.506 220.675 237.165 221.013 237.752C221.352 238.338 221.823 238.838 222.389 239.21L322.079 296.76C322.684 297.066 323.352 297.225 324.029 297.225C324.707 297.225 325.375 297.066 325.979 296.76L328.169 295.49C328.735 295.12 329.206 294.622 329.545 294.037C329.883 293.451 330.08 292.795 330.119 292.12V215.7Z" fill="#007BD0"/>
<path opacity="0.4" d="M329.55 213.78L324 217L221 157.5C221.328 156.904 221.803 156.401 222.38 156.04L224.58 154.78C225.181 154.47 225.848 154.308 226.525 154.308C227.202 154.308 227.869 154.47 228.47 154.78L328.16 212.33C328.739 212.687 329.218 213.186 329.55 213.78Z" fill="white"/>
<path opacity="0.1" d="M330.12 215.7V292.11C330.085 292.787 329.89 293.447 329.551 294.035C329.212 294.622 328.739 295.121 328.17 295.49L326 296.76C325.827 296.856 325.647 296.936 325.46 297C325.2 297.087 324.932 297.147 324.66 297.18C324.147 297.249 323.627 297.232 323.12 297.13L322.74 297.03L322.51 296.94C322.657 297.002 322.815 297.035 322.975 297.035C323.135 297.035 323.293 297.002 323.44 296.94C323.647 296.802 323.813 296.61 323.919 296.384C324.025 296.158 324.067 295.908 324.04 295.66V219.22C324.061 218.875 323.976 218.531 323.798 218.235C323.619 217.938 323.355 217.703 323.04 217.56L324.04 216.97L329.57 213.78C329.912 214.363 330.102 215.024 330.12 215.7Z" fill="black"/>
<path opacity="0.2" d="M324 217L277.84 234.25C276.243 234.847 274.49 234.882 272.87 234.35C271.251 233.817 269.861 232.748 268.93 231.32L261.52 219.96L220.63 157.31L260.04 220.39L220.42 235.89C220.455 236.581 220.664 237.252 221.03 237.84L260.15 220.57L268.76 234.35C269.717 235.882 271.195 237.017 272.921 237.548C274.648 238.078 276.507 237.969 278.16 237.24L284.29 234.53L323.4 296.95C323.608 296.812 323.773 296.62 323.879 296.394C323.985 296.168 324.027 295.918 324 295.67V294.39L284.5 234.42L324 217Z" fill="black"/>
<path d="M434.87 312L433.16 309.47C433.16 309.47 418.16 283.77 415.08 278.72C412 273.67 400.9 265.89 400.9 265.89L402.07 218.61L376 222.4C375.79 228.04 376.67 249.6 380.75 260.4C383.001 266.537 385.848 272.438 389.25 278.02C390.47 280.12 426.94 315.84 426.94 315.84L428 317C428.702 317.805 429.664 318.337 430.719 318.506C431.773 318.674 432.853 318.466 433.77 317.92L433.86 317.86C434.764 317.211 435.376 316.233 435.565 315.137C435.754 314.041 435.504 312.914 434.87 312Z" fill="#FFA8A7"/>
<path d="M431.891 307.27L427.211 299.27C427.211 299.27 427.281 303.03 424.761 305.27C423.111 306.663 421.159 307.652 419.061 308.16L425.481 314.47C425.481 314.47 431.821 314.33 431.891 307.27Z" fill="#F0F0F0"/>
<path d="M441 318.24C440.79 317.07 439.38 315.45 438.47 314.42C436.64 312.13 432.42 305.1 431.61 304.2C431.53 304.078 431.421 303.978 431.293 303.909C431.164 303.84 431.021 303.804 430.875 303.804C430.73 303.804 430.586 303.84 430.458 303.909C430.33 303.978 430.22 304.078 430.14 304.2L430.75 305.25C430.75 305.25 431.62 307.11 429.3 310.25C428.3 311.59 425.25 313.13 423.73 312.73L422.89 311.91C422.26 313.2 423.28 313.91 425.16 315.76C427.04 317.61 426.36 321.28 425.77 322.92C424.582 325.638 422.794 328.051 420.54 329.98C416.04 333.98 415.87 335.42 417.87 336.72C419.57 337.82 424.56 338.35 428.3 336.72C431.72 335.26 433 333.31 433.64 330.02C434.28 326.73 436.28 325.67 438.01 324.18C439.74 322.69 441.27 320 441 318.24Z" fill="#263238"/>
<path d="M415.4 222.53L381.05 217.89H378.71C378.71 217.89 377.81 224.89 383.49 232.79C385.461 235.658 387.742 238.3 390.29 240.67C390.29 240.67 386.21 265.15 384.78 276.93C383.62 286.44 379.78 320.68 378.78 329.12C378.637 330.384 378.424 331.64 378.14 332.88L376.62 339.46L384.07 341.18L386.2 336.18C386.778 333.676 387.571 331.227 388.57 328.86C392.445 319.235 395.754 309.391 398.48 299.38C400.48 291.55 399.65 282.7 399.48 280.6C399.48 280.6 411.82 254.6 414.89 239.4C416.15 233.863 416.324 228.133 415.4 222.53Z" fill="#FFA8A7"/>
<path d="M378.71 330L379.78 320.55C379.78 320.55 384.12 323.73 391.37 321.79C390.27 324.79 388.96 328.15 387.54 331.68C387.54 331.68 383.89 335.97 380.93 334.94C377.97 333.91 378.71 330 378.71 330Z" fill="#F0F0F0"/>
<path d="M388.45 329.41L388.05 330.41C388.05 330.41 386.22 332.82 381.44 331.67C380.663 331.519 379.972 331.081 379.503 330.444C379.034 329.807 378.822 329.016 378.91 328.23C378.91 328.23 377.82 328.23 377.71 329.11C377.239 332.6 375.825 335.895 373.62 338.64C372.216 340.08 370.617 341.315 368.87 342.31C364.6 344.94 360.65 346.6 360.16 348.16C359.36 350.74 362.78 353.04 368.16 353.35C370.674 353.543 373.197 353.132 375.52 352.15C377.593 351.059 379.445 349.59 380.98 347.82C382.29 346.51 386.28 345.19 387.27 343.61C387.69 342.93 387.91 340.24 387.91 338.76V337.68C388.127 335.47 388.621 333.297 389.38 331.21C389.72 330 388.45 329.41 388.45 329.41Z" fill="#263238"/>
<path d="M376.001 222.4C376.001 222.4 375.791 235.96 376.001 241.94C376.211 247.92 377.321 263.23 377.321 263.23C380.207 264.503 383.337 265.128 386.491 265.06L386.141 267.45C393.526 271.413 402.088 272.595 410.271 270.78C410.271 270.78 415.571 251.91 416.391 238.6C417.211 225.29 415.471 222.53 415.471 222.53L376.001 222.4Z" fill="#455A64"/>
<path d="M386.6 263.88C394.267 267.586 402.963 268.584 411.27 266.71L410.97 267.89C410.97 267.89 399.84 271.75 386.42 265.06L386.6 263.88Z" fill="#37474F"/>
<path d="M377 259.29C377 259.29 382.56 261.29 387 261.19L386.85 262.19C386.85 262.19 381 262 377 260.35V259.29Z" fill="#37474F"/>
<path d="M385.74 269.71C385.74 269.71 389.43 244.16 390.29 240.71C390.29 240.71 383.95 238.28 382.01 236.05C382.01 236.05 383.39 239.16 387.92 241.93L385.74 269.71Z" fill="#F28F8F"/>
<path d="M382 236C382 236 383.38 239.11 387.91 241.88L386.1 265.05H386.41C387.52 257.53 389.65 243.22 390.28 240.65C390.29 240.66 384 238.23 382 236Z" fill="#263238"/>
<path d="M399.521 280.62C400.521 279.25 402.521 274.62 403.701 271.56H403.941L400.941 281.32C401.581 284.536 401.869 287.812 401.801 291.09L399.801 289.34C399.881 287.87 399.521 280.62 399.521 280.62Z" fill="#F28F8F"/>
<path d="M379.84 211.74C384.84 195.01 383.84 180.84 384.84 176.5L371.97 194.5C371.423 200.428 370.545 206.32 369.34 212.15C367.85 218.55 365.82 226.52 363.39 231.48C362.949 232.356 362.202 233.039 361.29 233.4C358.86 234.4 357.74 235.64 355.79 237.08C354.26 238.21 353.1 238.36 353.2 238.82C353.365 239.338 353.719 239.774 354.192 240.041C354.665 240.308 355.222 240.387 355.75 240.26C356.928 240.012 358.072 239.626 359.16 239.11C358.043 240.951 356.638 242.602 355 244C351.28 247.24 350.74 249.53 356.94 250.66C360.82 251.36 364.34 249.5 368.75 241.44C370.432 238.498 371.903 235.441 373.15 232.29C376.09 224.09 378.32 216.8 379.84 211.74Z" fill="#FFA8A7"/>
<path d="M389.19 169C383.19 169 377.19 170.38 375.19 176.79C373.19 183.2 370.53 201.23 370.53 201.23C370.53 201.23 373.06 204.61 381.53 204.08L389.19 169Z" fill="#E0E0E0"/>
<path d="M401.58 169.45C405.81 170.45 410.71 171.33 414.8 173.36C417.65 174.77 413.48 198.36 413.48 198.36L415.4 222.5C409.76 228.6 388.21 231.38 375.96 222.37C375.96 222.37 376.07 189.52 376.09 183.28C376.11 177.04 379.61 169.54 389.19 169.01L401.58 169.45Z" fill="#F5F5F5"/>
<path d="M385.23 177.2C386.01 179.04 387.43 179.78 390.01 180.07C391.306 180.161 392.607 179.988 393.835 179.561C395.062 179.135 396.19 178.465 397.15 177.59L393.94 174.39L389.87 177.46L389.52 174.05L385.23 177.2Z" fill="#007BD0"/>
<path opacity="0.1" d="M385.23 177.2C386.01 179.04 387.43 179.78 390.01 180.07C391.306 180.161 392.607 179.988 393.835 179.561C395.062 179.135 396.19 178.465 397.15 177.59L393.94 174.39L389.87 177.46L389.52 174.05L385.23 177.2Z" fill="black"/>
<path d="M413.5 197.93L409.82 187.66L414.09 206.11L413.5 197.93Z" fill="#E0E0E0"/>
<path d="M408.33 147.74L405.64 158.22C405.36 159.311 404.724 160.276 403.833 160.965C402.942 161.653 401.846 162.024 400.72 162.02H397.61L397.66 147.39L408.33 147.74Z" fill="#263238"/>
<path d="M398.24 143.865C398.27 137.657 393.262 132.601 387.055 132.57C380.847 132.54 375.79 137.548 375.76 143.755C375.73 149.963 380.737 155.02 386.945 155.05C393.153 155.08 398.209 150.073 398.24 143.865Z" fill="#263238"/>
<path d="M404.38 137.49C405.026 137.415 405.681 137.488 406.294 137.705C406.908 137.922 407.464 138.276 407.92 138.74C409.43 140.3 409.11 143.17 407.92 149.74L403.22 150.26L404.38 137.49Z" fill="#263238"/>
<path d="M402.14 150.3C402.83 150.72 403.83 149.38 404.7 148.48C405.57 147.58 408.37 146.37 409.76 149.32C411.15 152.27 408.93 156.32 406.76 157.17C405.999 157.543 405.123 157.606 404.315 157.347C403.508 157.088 402.833 156.526 402.43 155.78L401.55 169.45C401.55 169.45 396.55 176.57 389.84 177.45C388.31 174.13 386.94 171.75 389.16 169.03V164.85C387.467 165.146 385.744 165.23 384.03 165.1C382.665 164.789 381.415 164.097 380.428 163.103C379.44 162.11 378.754 160.857 378.45 159.49C376.945 153.449 376.781 147.151 377.97 141.04C379.8 130.63 391.48 130.49 398.06 134.66C404.64 138.83 402.14 150.3 402.14 150.3Z" fill="#FFA8A7"/>
<path d="M402.14 151.47C402.49 151.47 403.83 149.27 404.7 148.47C405.9 147.39 404.38 137.47 404.38 137.47C403.8 129.35 391.83 128.69 388.52 128.47C380.94 127.9 375.77 132.08 377.81 137.38C379.18 139.78 381.97 140.45 384.6 140.78C389.06 141.34 396.66 138.97 397.6 138.84C398.9 138.67 399.17 139.93 399.86 143.35C400.47 146.35 401 151.44 402.14 151.47Z" fill="#263238"/>
<path d="M404.38 138.26L408.6 136C408.466 135.716 408.276 135.461 408.041 135.252C407.806 135.044 407.531 134.884 407.233 134.784C406.935 134.684 406.62 134.646 406.306 134.671C405.993 134.696 405.688 134.784 405.41 134.93C404.84 135.244 404.415 135.766 404.222 136.387C404.03 137.008 404.087 137.68 404.38 138.26Z" fill="#263238"/>
<path d="M389.22 164.86C389.22 164.86 395.47 163.63 397.66 162.47C398.939 161.795 399.985 160.749 400.66 159.47C400.352 160.747 399.787 161.948 399 163C397.4 165 389.25 166.52 389.25 166.52L389.22 164.86Z" fill="#F28F8F"/>
<path d="M389.07 150C389.066 150.168 389.096 150.334 389.156 150.491C389.217 150.647 389.308 150.79 389.425 150.91C389.541 151.031 389.68 151.128 389.834 151.195C389.987 151.262 390.153 151.297 390.32 151.3C390.659 151.292 390.981 151.151 391.217 150.908C391.453 150.665 391.583 150.339 391.58 150C391.596 149.826 391.575 149.65 391.519 149.484C391.463 149.319 391.373 149.167 391.255 149.037C391.137 148.908 390.994 148.805 390.833 148.735C390.673 148.664 390.5 148.628 390.325 148.628C390.151 148.628 389.978 148.664 389.817 148.735C389.657 148.805 389.514 148.908 389.396 149.037C389.278 149.167 389.188 149.319 389.132 149.484C389.076 149.65 389.055 149.826 389.07 150Z" fill="#263238"/>
<path d="M390.41 145.3L393.09 146.79C393.282 146.424 393.325 145.997 393.209 145.6C393.094 145.203 392.829 144.866 392.47 144.66C392.294 144.563 392.099 144.503 391.899 144.483C391.699 144.463 391.497 144.483 391.304 144.543C391.112 144.603 390.934 144.701 390.78 144.831C390.627 144.961 390.501 145.12 390.41 145.3Z" fill="#263238"/>
<path d="M389.81 158.4L387 159.46C387.055 159.656 387.15 159.839 387.279 159.997C387.408 160.154 387.568 160.284 387.748 160.378C387.929 160.472 388.127 160.527 388.331 160.541C388.534 160.556 388.738 160.528 388.93 160.46C389.315 160.298 389.623 159.993 389.787 159.608C389.951 159.224 389.959 158.79 389.81 158.4Z" fill="#F28F8F"/>
<path d="M378.57 146.31L381.02 144.43C380.906 144.265 380.759 144.125 380.589 144.018C380.419 143.912 380.229 143.841 380.031 143.81C379.833 143.779 379.63 143.789 379.436 143.839C379.241 143.889 379.059 143.978 378.9 144.1C378.572 144.356 378.355 144.728 378.293 145.139C378.232 145.55 378.331 145.97 378.57 146.31Z" fill="#263238"/>
<path d="M379.29 149.31C379.29 149.468 379.321 149.624 379.381 149.769C379.442 149.915 379.53 150.047 379.642 150.159C379.753 150.27 379.885 150.358 380.031 150.419C380.176 150.479 380.332 150.51 380.49 150.51C380.648 150.51 380.804 150.479 380.949 150.419C381.095 150.358 381.227 150.27 381.339 150.159C381.45 150.047 381.538 149.915 381.599 149.769C381.659 149.624 381.69 149.468 381.69 149.31C381.695 149.149 381.669 148.989 381.612 148.839C381.554 148.689 381.468 148.552 381.357 148.436C381.246 148.319 381.113 148.226 380.966 148.162C380.819 148.097 380.661 148.063 380.5 148.06C380.175 148.068 379.865 148.203 379.639 148.437C379.413 148.671 379.287 148.985 379.29 149.31Z" fill="#263238"/>
<path d="M384.56 149.5L385.71 156.96L381.59 156.46L384.56 149.5Z" fill="#F28F8F"/>
<path d="M387.26 176.2C387.17 177.359 387.187 178.524 387.31 179.68C387.433 180.719 387.829 181.706 388.46 182.54C388.867 182.802 389.329 182.965 389.809 183.018C390.29 183.07 390.777 183.009 391.23 182.84C391.987 182.09 392.572 181.185 392.945 180.187C393.318 179.189 393.47 178.122 393.39 177.06L389.87 177.46L387.26 176.2Z" fill="#007BD0"/>
<path d="M388.46 182.54C388.46 182.54 384.3 197.94 384.14 199.8C383.98 201.66 387.6 211.58 389.19 211.63C390.78 211.68 393.68 204.93 393.73 203.23C393.78 201.53 391.23 182.84 391.23 182.84L388.46 182.54Z" fill="#007BD0"/>
<path opacity="0.1" d="M391.23 182.84C390.783 183.039 390.291 183.116 389.804 183.064C389.318 183.011 388.854 182.83 388.46 182.54L388.38 182.81C388.781 183.145 389.257 183.377 389.767 183.487C390.278 183.596 390.807 183.58 391.31 183.44L391.23 182.84Z" fill="black"/>
<path d="M389.87 177.46L401.63 168.59L401.8 165.96C401.8 165.96 404.35 166.96 404.97 171.76C403.096 175.916 399.89 179.329 395.86 181.46L393.39 177.06L389.87 177.46Z" fill="#E0E0E0"/>
<path d="M389.2 167.07C387.661 167.307 386.278 168.141 385.35 169.39C384.17 171.39 384.44 178.76 384.44 178.76L387.26 176.2L389.87 177.46C389.62 174.99 389.19 170.82 389.19 170.82L389.2 167.07Z" fill="#E0E0E0"/>
<path d="M399.62 141.62C399.62 141.62 391.08 148.06 381.02 145.99C370.36 143.79 377.6 137.38 377.6 137.38L399.62 141.62Z" fill="#37474F"/>
<path d="M372.53 129.54C375.39 125.98 387.37 121.54 397.61 123.95C407.85 126.36 410.61 131.71 410.61 131.71C406.494 134.247 401.698 135.458 396.87 135.18C388.71 134.73 372.53 129.54 372.53 129.54Z" fill="#007BD0"/>
<path opacity="0.4" d="M372.53 129.54C375.39 125.98 387.37 121.54 397.61 123.95C407.85 126.36 410.61 131.71 410.61 131.71C406.494 134.247 401.698 135.458 396.87 135.18C388.71 134.73 372.53 129.54 372.53 129.54Z" fill="white"/>
<path d="M409.29 134.93C409.882 133.929 410.317 132.843 410.58 131.71C410.58 131.71 409.37 132.88 402.43 131.82C395.85 130.82 389 126.99 381.69 126.68C374.38 126.37 372.53 129.54 372.53 129.54C373.463 131.979 374.96 134.162 376.9 135.91C376.9 135.91 380.15 140.31 388.71 140.53C397.27 140.75 409.29 134.93 409.29 134.93Z" fill="#007BD0"/>
<path d="M385.37 133.36C385.37 135.36 384.01 136.75 382.37 136.49C381.481 136.245 380.701 135.707 380.156 134.962C379.612 134.218 379.335 133.312 379.37 132.39C379.37 130.39 380.73 129 382.37 129.27C383.258 129.513 384.038 130.05 384.583 130.792C385.128 131.535 385.405 132.44 385.37 133.36Z" fill="#F5F5F5"/>
<path d="M409.29 134.93L409.2 136.3C409.16 136.756 409.015 137.197 408.778 137.589C408.54 137.981 408.216 138.313 407.83 138.56C402.03 141.63 395.469 142.963 388.93 142.4C382.85 141.95 379.88 140.76 378.58 139.77C378.128 139.507 377.747 139.137 377.472 138.692C377.196 138.248 377.034 137.742 377 137.22L376.9 135.91C376.9 135.91 379.27 138.17 389.23 139C399.19 139.83 409.29 134.93 409.29 134.93Z" fill="#455A64"/>
<path d="M385.42 169.27C385.42 169.27 380.63 172.84 383.54 187.89C387.19 206.68 398.17 226.33 398.17 226.33C398.17 226.33 393.37 228.49 392.63 227.73C391.89 226.97 385.12 211.6 382.27 202.8C379.42 194 375.27 179.8 380.61 170.59C380.61 170.59 383.12 168.61 385.42 169.27Z" fill="#007BD0"/>
<path opacity="0.1" d="M385.42 169.27C385.42 169.27 380.63 172.84 383.54 187.89C387.19 206.68 398.17 226.33 398.17 226.33C398.17 226.33 393.37 228.49 392.63 227.73C391.89 226.97 385.12 211.6 382.27 202.8C379.42 194 375.27 179.8 380.61 170.59C380.61 170.59 383.12 168.61 385.42 169.27Z" fill="black"/>
<path d="M422.16 218.22C422.16 218.22 393.77 225.84 392.75 227.36C391.73 228.88 393.83 250.93 397.35 253.61C399.692 255.158 402.407 256.049 405.21 256.19C415.8 256.05 431.56 250.43 432.04 246.42C433.61 233.24 422.16 218.22 422.16 218.22Z" fill="#007BD0"/>
<path opacity="0.1" d="M422.16 218.22C422.16 218.22 393.77 225.84 392.75 227.36C391.73 228.88 393.83 250.93 397.35 253.61C399.692 255.158 402.407 256.049 405.21 256.19C415.8 256.05 431.56 250.43 432.04 246.42C433.61 233.24 422.16 218.22 422.16 218.22Z" fill="black"/>
<path d="M422.16 218.22C425.06 219.01 429.69 227.72 429.7 229.56C429.7 233.47 425.24 237.72 411.79 240.56C402.22 242.56 399.05 240.92 397.72 238.1C395.72 233.84 394.51 228.64 392.72 227.36C394.7 225 419.48 217.49 422.16 218.22Z" fill="#007BD0"/>
<path d="M430.51 210.74C430.05 203.65 427.01 194.86 425.25 190.51L413.51 194.93C413.51 194.93 417.84 205.44 418.86 210.23C418.86 215.74 416.59 225.3 414.38 230.36C413.98 231.248 413.268 231.959 412.38 232.36C410 233.46 408.93 234.76 407.05 236.29C405.57 237.49 404.42 237.69 404.54 238.14C404.729 238.651 405.104 239.071 405.59 239.316C406.077 239.561 406.638 239.613 407.16 239.46C408.322 239.162 409.443 238.726 410.5 238.16C409.482 240.06 408.161 241.783 406.59 243.26C403.02 246.66 402.59 248.98 408.82 249.83C412.73 250.36 416.17 248.35 420.21 240.1C421.38 237.72 423.57 233.66 424.76 230.53C428.7 220.21 430.18 215.34 430.51 210.74Z" fill="#FFA8A7"/>
<path d="M411.72 172.17C416.48 172.4 419.65 174.33 422.79 180.57C425.93 186.81 429.51 199.57 429.51 199.57C425.699 202.81 420.795 204.473 415.8 204.22C415.8 204.22 409.69 187.9 408.65 184.03C407.53 179.79 408.54 173.61 411.72 172.17Z" fill="#F5F5F5"/>
</svg>
