<svg width="18" height="23" viewBox="0 0 18 23" fill="none" xmlns="http://www.w3.org/2000/svg">
<path d="M0 7.5V9.5V10.5V13.5V14.5V19.5V20.5C0 21.605 0.8954 22.5 2 22.5H16C17.105 22.5 18 21.605 18 20.5V19.5V14.5V10.5V7.5H0Z" fill="#972A2A"/>
<path d="M0 6.5V8.5V9.5V12.5V13.5V18.5V19.5C0 20.6 0.8954 21.5 2 21.5H16C17.105 21.5 18 20.6 18 19.5V18.5V13.5V9.5V6.5H0Z" fill="#ECF0F1"/>
<path d="M0 5.5V7.5V8.5V11.5V12.5V17.5V18.5C0 19.6 0.8954 20.5 2 20.5H16C17.105 20.5 18 19.6 18 18.5V17.5V12.5V8.5V5.5H0Z" fill="#BDC3C7"/>
<path d="M0 4.5V6.5V7.5V10.5V11.5V16.5V17.5C0 18.6 0.8954 19.5 2 19.5H16C17.105 19.5 18 18.6 18 17.5V16.5V11.5V7.5V4.5H0Z" fill="#ECF0F1"/>
<path d="M2 0.5C0.8954 0.5 0 1.3954 0 2.5V3.5V7.5V9.5V10.5V13.5V14.5V19.5V20.5C0 21.605 0.8954 22.5 2 22.5H4V21.5H2.5C1.6716 21.5 1 20.828 1 20C1 19.172 1.6716 18.5 2.5 18.5H15H16C17.105 18.5 18 17.605 18 16.5V15.5V10.5V6.5V3.5V2.5C18 1.3954 17.105 0.5 16 0.5H12H2Z" fill="#972A2A"/>
<path d="M5 1V19H6H15H16C17.105 19 18 18.105 18 17V16V11V7V4V3C18 1.8954 17.105 1 16 1H12H6H5Z" fill="#B24242"/>
</svg>
